G04 #@! TF.FileFunction,Copper,L1,Top,Signal*
%FSLAX46Y46*%
G04 Gerber Fmt 4.6, Leading zero omitted, Abs format (unit mm)*
G04 Created by KiCad (PCBNEW (2015-06-11 BZR 5731)-product) date Sun 19 Jul 2015 11:24:49 PM CEST*
%MOMM*%
G01*
G04 APERTURE LIST*
%ADD10C,0.100000*%
%ADD11R,2.000000X1.600000*%
%ADD12R,1.500000X1.250000*%
%ADD13R,1.727200X1.727200*%
%ADD14O,1.727200X1.727200*%
%ADD15C,1.998980*%
%ADD16R,1.500000X1.300000*%
%ADD17R,1.300000X1.500000*%
%ADD18R,1.000760X1.000760*%
%ADD19R,1.597660X1.800860*%
%ADD20R,1.600000X2.000000*%
%ADD21R,1.500000X4.500000*%
%ADD22R,4.500000X1.500000*%
%ADD23C,0.711200*%
%ADD24C,0.635000*%
%ADD25C,0.381000*%
%ADD26C,0.508000*%
%ADD27C,0.254000*%
G04 APERTURE END LIST*
D10*
D11*
X105600000Y-68675000D03*
X101600000Y-68675000D03*
D12*
X104850000Y-70834000D03*
X102350000Y-70834000D03*
X120344000Y-69691000D03*
X117844000Y-69691000D03*
X120344000Y-67024000D03*
X117844000Y-67024000D03*
D13*
X123920000Y-88487000D03*
D14*
X126460000Y-88487000D03*
D13*
X124936000Y-78327000D03*
D14*
X127476000Y-78327000D03*
X124936000Y-80867000D03*
X127476000Y-80867000D03*
X124936000Y-83407000D03*
X127476000Y-83407000D03*
D15*
X124809000Y-74644000D03*
X127603000Y-74644000D03*
D16*
X102156000Y-89376000D03*
X99456000Y-89376000D03*
D17*
X124428000Y-93901000D03*
X124428000Y-91201000D03*
X122142000Y-91201000D03*
X122142000Y-93901000D03*
D16*
X123365000Y-72104000D03*
X120665000Y-72104000D03*
D17*
X122777000Y-67071000D03*
X122777000Y-69771000D03*
D18*
X109490260Y-95400880D03*
X115489740Y-99099120D03*
X109490260Y-99099120D03*
X115489740Y-95400880D03*
X109490260Y-65047880D03*
X115489740Y-68746120D03*
X109490260Y-68746120D03*
X115489740Y-65047880D03*
D19*
X105019860Y-92424000D03*
X102180140Y-92424000D03*
D20*
X98139000Y-84137000D03*
X98139000Y-80137000D03*
D16*
X129588000Y-85947000D03*
X126888000Y-85947000D03*
D10*
G36*
X131278671Y-76413910D02*
X130704645Y-75028091D01*
X134862103Y-73306016D01*
X135436129Y-74691835D01*
X131278671Y-76413910D01*
X131278671Y-76413910D01*
G37*
G36*
X130306655Y-74067256D02*
X129732629Y-72681437D01*
X133890087Y-70959362D01*
X134464113Y-72345181D01*
X130306655Y-74067256D01*
X130306655Y-74067256D01*
G37*
G36*
X127706938Y-69649773D02*
X126646278Y-68589113D01*
X129828258Y-65407133D01*
X130888918Y-66467793D01*
X127706938Y-69649773D01*
X127706938Y-69649773D01*
G37*
G36*
X125910887Y-67853722D02*
X124850227Y-66793062D01*
X128032207Y-63611082D01*
X129092867Y-64671742D01*
X125910887Y-67853722D01*
X125910887Y-67853722D01*
G37*
G36*
X121818563Y-64767371D02*
X120432744Y-64193345D01*
X122154819Y-60035887D01*
X123540638Y-60609913D01*
X121818563Y-64767371D01*
X121818563Y-64767371D01*
G37*
G36*
X119471909Y-63795355D02*
X118086090Y-63221329D01*
X119808165Y-59063871D01*
X121193984Y-59637897D01*
X119471909Y-63795355D01*
X119471909Y-63795355D01*
G37*
D21*
X113760000Y-60260000D03*
X111220000Y-60260000D03*
D10*
G36*
X106893910Y-63221329D02*
X105508091Y-63795355D01*
X103786016Y-59637897D01*
X105171835Y-59063871D01*
X106893910Y-63221329D01*
X106893910Y-63221329D01*
G37*
G36*
X104547256Y-64193345D02*
X103161437Y-64767371D01*
X101439362Y-60609913D01*
X102825181Y-60035887D01*
X104547256Y-64193345D01*
X104547256Y-64193345D01*
G37*
G36*
X100129773Y-66793062D02*
X99069113Y-67853722D01*
X95887133Y-64671742D01*
X96947793Y-63611082D01*
X100129773Y-66793062D01*
X100129773Y-66793062D01*
G37*
G36*
X98333722Y-68589113D02*
X97273062Y-69649773D01*
X94091082Y-66467793D01*
X95151742Y-65407133D01*
X98333722Y-68589113D01*
X98333722Y-68589113D01*
G37*
G36*
X95247371Y-72681437D02*
X94673345Y-74067256D01*
X90515887Y-72345181D01*
X91089913Y-70959362D01*
X95247371Y-72681437D01*
X95247371Y-72681437D01*
G37*
G36*
X94275355Y-75028091D02*
X93701329Y-76413910D01*
X89543871Y-74691835D01*
X90117897Y-73306016D01*
X94275355Y-75028091D01*
X94275355Y-75028091D01*
G37*
D22*
X90740000Y-80740000D03*
X90740000Y-83280000D03*
D10*
G36*
X93701329Y-87606090D02*
X94275355Y-88991909D01*
X90117897Y-90713984D01*
X89543871Y-89328165D01*
X93701329Y-87606090D01*
X93701329Y-87606090D01*
G37*
G36*
X94673345Y-89952744D02*
X95247371Y-91338563D01*
X91089913Y-93060638D01*
X90515887Y-91674819D01*
X94673345Y-89952744D01*
X94673345Y-89952744D01*
G37*
G36*
X97273062Y-94370227D02*
X98333722Y-95430887D01*
X95151742Y-98612867D01*
X94091082Y-97552207D01*
X97273062Y-94370227D01*
X97273062Y-94370227D01*
G37*
G36*
X99069113Y-96166278D02*
X100129773Y-97226938D01*
X96947793Y-100408918D01*
X95887133Y-99348258D01*
X99069113Y-96166278D01*
X99069113Y-96166278D01*
G37*
G36*
X103161437Y-99252629D02*
X104547256Y-99826655D01*
X102825181Y-103984113D01*
X101439362Y-103410087D01*
X103161437Y-99252629D01*
X103161437Y-99252629D01*
G37*
G36*
X105508091Y-100224645D02*
X106893910Y-100798671D01*
X105171835Y-104956129D01*
X103786016Y-104382103D01*
X105508091Y-100224645D01*
X105508091Y-100224645D01*
G37*
D21*
X111220000Y-103760000D03*
X113760000Y-103760000D03*
D10*
G36*
X118086090Y-100798671D02*
X119471909Y-100224645D01*
X121193984Y-104382103D01*
X119808165Y-104956129D01*
X118086090Y-100798671D01*
X118086090Y-100798671D01*
G37*
G36*
X120432744Y-99826655D02*
X121818563Y-99252629D01*
X123540638Y-103410087D01*
X122154819Y-103984113D01*
X120432744Y-99826655D01*
X120432744Y-99826655D01*
G37*
G36*
X124850227Y-97226938D02*
X125910887Y-96166278D01*
X129092867Y-99348258D01*
X128032207Y-100408918D01*
X124850227Y-97226938D01*
X124850227Y-97226938D01*
G37*
G36*
X126646278Y-95430887D02*
X127706938Y-94370227D01*
X130888918Y-97552207D01*
X129828258Y-98612867D01*
X126646278Y-95430887D01*
X126646278Y-95430887D01*
G37*
G36*
X129732629Y-91338563D02*
X130306655Y-89952744D01*
X134464113Y-91674819D01*
X133890087Y-93060638D01*
X129732629Y-91338563D01*
X129732629Y-91338563D01*
G37*
G36*
X130704645Y-88991909D02*
X131278671Y-87606090D01*
X135436129Y-89328165D01*
X134862103Y-90713984D01*
X130704645Y-88991909D01*
X130704645Y-88991909D01*
G37*
D22*
X134240000Y-83280000D03*
X134240000Y-80740000D03*
D23*
X106648000Y-70071992D03*
X129254000Y-84677000D03*
D24*
X106521010Y-75025000D03*
D23*
X104108001Y-74262999D03*
X105632000Y-84169000D03*
D24*
X107602337Y-70199019D03*
X105378010Y-78668142D03*
D23*
X118967000Y-71977000D03*
D24*
X130651000Y-82038482D03*
D23*
X134334000Y-80740000D03*
X133191000Y-80740000D03*
X134334000Y-80740000D03*
X135477000Y-80740000D03*
X134715000Y-89757000D03*
X132302000Y-88741000D03*
X130016000Y-97631000D03*
X128111000Y-95853000D03*
X122650000Y-103219000D03*
X121634000Y-100679000D03*
X126352516Y-66610640D03*
X128111000Y-64611000D03*
X131032000Y-72993000D03*
X133571137Y-71965633D03*
X133445002Y-89249000D03*
X129000000Y-96742000D03*
X122142000Y-102076000D03*
X113760000Y-104489002D03*
X113760000Y-102965000D03*
X113760000Y-105505000D03*
X105251000Y-102838004D03*
X105759000Y-101695000D03*
X104743000Y-103854000D03*
X97885000Y-98647000D03*
X98393000Y-97758000D03*
X96996000Y-99409000D03*
X92678000Y-91789000D03*
X93694000Y-91154000D03*
X91408000Y-92043000D03*
X89249000Y-83280000D03*
X91789000Y-83280000D03*
X90392000Y-83280004D03*
X91535000Y-74644000D03*
X92678000Y-75279000D03*
X90392000Y-74263000D03*
X96996000Y-68167000D03*
X103346000Y-63468000D03*
X102330000Y-60928000D03*
X111220000Y-61309000D03*
X111220000Y-58769000D03*
X111346994Y-60039000D03*
X96107001Y-67278000D03*
X95345000Y-66389000D03*
X102838000Y-62198004D03*
X119221000Y-62198000D03*
X119856002Y-61055000D03*
X120237000Y-60039000D03*
X132302000Y-72612000D03*
X127222000Y-65627000D03*
X128365000Y-92170000D03*
X124809000Y-96615000D03*
X118205000Y-100044000D03*
X110712000Y-100679000D03*
X104235000Y-98520000D03*
X97885000Y-93693998D03*
X94456000Y-87598000D03*
D24*
X93947998Y-82010000D03*
D23*
X95853000Y-73882000D03*
X99789996Y-67913000D03*
X104489000Y-64992000D03*
X113506000Y-63468000D03*
X119602000Y-64865000D03*
X124936000Y-68040000D03*
X127857000Y-71723000D03*
D24*
X97210132Y-77906132D03*
X107393422Y-78741157D03*
X107791040Y-77946000D03*
X96992751Y-77044107D03*
D23*
X119221000Y-73374000D03*
X108553000Y-78708000D03*
X123539000Y-76676000D03*
X118967000Y-93694020D03*
D24*
X119475000Y-90438990D03*
D23*
X114395000Y-92551000D03*
D24*
X109950000Y-81629010D03*
D23*
X103727000Y-75914000D03*
D25*
X105600000Y-70084000D02*
X104850000Y-70834000D01*
X105600000Y-70072000D02*
X105600000Y-70084000D01*
X105600000Y-68675000D02*
X105600000Y-70072000D01*
X105600008Y-70071992D02*
X106198988Y-70071992D01*
X105600000Y-70072000D02*
X105600008Y-70071992D01*
X106198988Y-70071992D02*
X106648000Y-70071992D01*
X129571499Y-84994499D02*
X129254000Y-84677000D01*
X129715000Y-85138000D02*
X129571499Y-84994499D01*
X129715000Y-85820000D02*
X129715000Y-85138000D01*
X123920000Y-88487000D02*
X124047000Y-88487000D01*
X125444000Y-84931000D02*
X126968000Y-83407000D01*
X124047000Y-88487000D02*
X125444000Y-87090000D01*
X125444000Y-87090000D02*
X125444000Y-84931000D01*
X126968000Y-83407000D02*
X127476000Y-83407000D01*
X117844000Y-67024000D02*
X117844000Y-69691000D01*
X122142000Y-90011000D02*
X122142000Y-91201000D01*
X123666000Y-88487000D02*
X122142000Y-90011000D01*
X123920000Y-88487000D02*
X123666000Y-88487000D01*
X122142000Y-91201000D02*
X108633000Y-91201000D01*
X107410000Y-92424000D02*
X105019860Y-92424000D01*
X108633000Y-91201000D02*
X107410000Y-92424000D01*
X101600000Y-70084000D02*
X102350000Y-70834000D01*
X101600000Y-68675000D02*
X101600000Y-70084000D01*
X103790502Y-73945500D02*
X104108001Y-74262999D01*
X102350000Y-70834000D02*
X102350000Y-72504998D01*
X102350000Y-72504998D02*
X103790502Y-73945500D01*
X111537501Y-75342499D02*
X106838509Y-75342499D01*
X117189000Y-69691000D02*
X111537501Y-75342499D01*
X106838509Y-75342499D02*
X106521010Y-75025000D01*
X117844000Y-69691000D02*
X117189000Y-69691000D01*
X105600000Y-84137000D02*
X105632000Y-84169000D01*
X98139000Y-84137000D02*
X105600000Y-84137000D01*
X105632000Y-84804000D02*
X105632000Y-84169000D01*
X105632000Y-91811860D02*
X105632000Y-84804000D01*
X105019860Y-92424000D02*
X105632000Y-91811860D01*
X107537000Y-92424000D02*
X105019860Y-92424000D01*
X109490260Y-94377260D02*
X107537000Y-92424000D01*
X109490260Y-95400880D02*
X109490260Y-94377260D01*
X107602337Y-67817183D02*
X107602337Y-69750007D01*
X107602337Y-69750007D02*
X107602337Y-70199019D01*
X109490260Y-65929260D02*
X107602337Y-67817183D01*
X109490260Y-65047880D02*
X109490260Y-65929260D01*
X98139000Y-80137000D02*
X103911786Y-80137000D01*
X105378010Y-78668142D02*
X103911786Y-80134366D01*
X103911786Y-80134366D02*
X103911786Y-80137000D01*
X118967000Y-70943000D02*
X118967000Y-71527988D01*
X120219000Y-69691000D02*
X118967000Y-70943000D01*
X120344000Y-69691000D02*
X120219000Y-69691000D01*
X118967000Y-71527988D02*
X118967000Y-71977000D01*
X122777000Y-69771000D02*
X120424000Y-69771000D01*
X120424000Y-69771000D02*
X120344000Y-69691000D01*
X120424000Y-69771000D02*
X120344000Y-69691000D01*
X120344000Y-69691000D02*
X120237000Y-69691000D01*
X120391000Y-67071000D02*
X120344000Y-67024000D01*
X122777000Y-67071000D02*
X120391000Y-67071000D01*
X125063000Y-69818000D02*
X125063000Y-72104000D01*
X125063000Y-72104000D02*
X127603000Y-74644000D01*
X122777000Y-67532000D02*
X125063000Y-69818000D01*
X122777000Y-67071000D02*
X122777000Y-67532000D01*
X131498482Y-82038482D02*
X130651000Y-82038482D01*
X134490000Y-83280000D02*
X132740000Y-83280000D01*
X132740000Y-83280000D02*
X131498482Y-82038482D01*
D26*
X132532649Y-88487000D02*
X133301357Y-89255708D01*
X126460000Y-88487000D02*
X132532649Y-88487000D01*
D25*
X126460000Y-90519000D02*
X125778000Y-91201000D01*
X125778000Y-91201000D02*
X124428000Y-91201000D01*
X126460000Y-88487000D02*
X126460000Y-90519000D01*
X127015000Y-87932000D02*
X126460000Y-88487000D01*
X127015000Y-85820000D02*
X127015000Y-87932000D01*
X133191000Y-80740000D02*
X134334000Y-80740000D01*
X134490000Y-80740000D02*
X134334000Y-80740000D01*
X126257876Y-66516000D02*
X126352516Y-66610640D01*
X126206000Y-66516000D02*
X126257876Y-66516000D01*
X130905000Y-72993000D02*
X131032000Y-72993000D01*
D27*
X133308065Y-89249000D02*
X133445002Y-89249000D01*
D25*
X134715000Y-89757000D02*
X134207000Y-89249000D01*
X134207000Y-89249000D02*
X133894014Y-89249000D01*
X133894014Y-89249000D02*
X133445002Y-89249000D01*
D27*
X133301357Y-89255708D02*
X133308065Y-89249000D01*
X129000000Y-96723948D02*
X129000000Y-96742000D01*
D25*
X130016000Y-97631000D02*
X129127000Y-96742000D01*
X129127000Y-96742000D02*
X129000000Y-96742000D01*
D27*
X128944375Y-96668323D02*
X129000000Y-96723948D01*
D25*
X122459499Y-102393499D02*
X122142000Y-102076000D01*
D27*
X122142000Y-101908979D02*
X122142000Y-102076000D01*
D25*
X122650000Y-102584000D02*
X122459499Y-102393499D01*
X122650000Y-103219000D02*
X122650000Y-102584000D01*
D27*
X122082362Y-101849341D02*
X122142000Y-101908979D01*
X113760000Y-104010000D02*
X113760000Y-104489002D01*
D25*
X105251004Y-102202996D02*
X105759000Y-101695000D01*
X105251004Y-102965000D02*
X105251004Y-102202996D01*
X97831677Y-98464375D02*
X97885000Y-98517698D01*
X97885000Y-98517698D02*
X97885000Y-98647000D01*
X97885000Y-98266000D02*
X98393000Y-97758000D01*
X97885000Y-98647000D02*
X97885000Y-98266000D01*
X92678000Y-91629703D02*
X92678000Y-91789000D01*
X92650659Y-91602362D02*
X92678000Y-91629703D01*
X93059000Y-91789000D02*
X93694000Y-91154000D01*
X92678000Y-91789000D02*
X93059000Y-91789000D01*
X90490000Y-83280000D02*
X90646000Y-83436000D01*
X89249000Y-83280000D02*
X90265000Y-83280000D01*
X90646000Y-83661000D02*
X90646000Y-83719988D01*
X90646000Y-83436000D02*
X90646000Y-83719988D01*
X90646000Y-83719988D02*
X90709499Y-83656489D01*
X90709499Y-83656489D02*
X90709499Y-83597503D01*
X90265000Y-83280000D02*
X90646000Y-83661000D01*
X90709499Y-83597503D02*
X90392000Y-83280004D01*
X91678643Y-74764292D02*
X91558351Y-74644000D01*
X91558351Y-74644000D02*
X91535000Y-74644000D01*
X92043000Y-74644000D02*
X92678000Y-75279000D01*
X91535000Y-74644000D02*
X92043000Y-74644000D01*
X102897638Y-63019638D02*
X103346000Y-63468000D01*
X102897638Y-62170659D02*
X102897638Y-63019638D01*
X111317994Y-60010000D02*
X111346994Y-60039000D01*
X111220000Y-60010000D02*
X111317994Y-60010000D01*
X111220000Y-61309000D02*
X111220000Y-60165994D01*
X111220000Y-60165994D02*
X111346994Y-60039000D01*
X96035625Y-67351677D02*
X96107001Y-67280301D01*
X96107001Y-67280301D02*
X96107001Y-67278000D01*
X96996000Y-68167000D02*
X96424500Y-67595499D01*
X96424500Y-67595499D02*
X96107001Y-67278000D01*
X102897638Y-62170659D02*
X102870293Y-62198004D01*
X102870293Y-62198004D02*
X102838000Y-62198004D01*
X119735708Y-61198643D02*
X119856002Y-61078349D01*
X119856002Y-61078349D02*
X119856002Y-61055000D01*
X119856002Y-60419998D02*
X120237000Y-60039000D01*
X119856002Y-61055000D02*
X119856002Y-60419998D01*
X132329341Y-72417638D02*
X132302000Y-72444979D01*
X132302000Y-72444979D02*
X132302000Y-72612000D01*
X127148323Y-65555625D02*
X127219698Y-65627000D01*
X127219698Y-65627000D02*
X127222000Y-65627000D01*
X128365000Y-92170000D02*
X129762000Y-90773000D01*
X131499979Y-90773000D02*
X132329341Y-91602362D01*
X129762000Y-90773000D02*
X131499979Y-90773000D01*
X125298948Y-96615000D02*
X127148323Y-98464375D01*
X124809000Y-96615000D02*
X125298948Y-96615000D01*
X119735708Y-101574708D02*
X118205000Y-100044000D01*
X119735708Y-102821357D02*
X119735708Y-101574708D01*
X111220000Y-101187000D02*
X110712000Y-100679000D01*
X111220000Y-104010000D02*
X111220000Y-101187000D01*
X103917501Y-98837499D02*
X104235000Y-98520000D01*
X103917501Y-99345499D02*
X103917501Y-98837499D01*
X102897638Y-100365362D02*
X103917501Y-99345499D01*
X102897638Y-101849341D02*
X102897638Y-100365362D01*
X96035625Y-96668323D02*
X97885000Y-94818948D01*
X97885000Y-94818948D02*
X97885000Y-94143010D01*
X97885000Y-94143010D02*
X97885000Y-93693998D01*
X93052294Y-89255708D02*
X91678643Y-89255708D01*
X94138501Y-88169501D02*
X93052294Y-89255708D01*
X94138501Y-87915499D02*
X94138501Y-88169501D01*
X94456000Y-87598000D02*
X94138501Y-87915499D01*
X90490000Y-80740000D02*
X92240000Y-80740000D01*
X93510000Y-82010000D02*
X94075000Y-82010000D01*
X92240000Y-80740000D02*
X93510000Y-82010000D01*
X94075000Y-82010000D02*
X93947998Y-82010000D01*
X95472000Y-73882000D02*
X95853000Y-73882000D01*
X94964000Y-73374000D02*
X95472000Y-73882000D01*
X93607021Y-73374000D02*
X94964000Y-73374000D01*
X92650659Y-72417638D02*
X93607021Y-73374000D01*
X97831677Y-65555625D02*
X99789996Y-67513944D01*
X99789996Y-67513944D02*
X99789996Y-67913000D01*
X104806499Y-64674501D02*
X104489000Y-64992000D01*
X105244292Y-61198643D02*
X105244292Y-64236708D01*
X105244292Y-64236708D02*
X104806499Y-64674501D01*
X113760000Y-60010000D02*
X113760000Y-62960000D01*
X113442501Y-63277499D02*
X113442501Y-63404501D01*
X113760000Y-62960000D02*
X113442501Y-63277499D01*
X113442501Y-63404501D02*
X113506000Y-63468000D01*
X120745000Y-64611000D02*
X122082362Y-63273638D01*
X122082362Y-63273638D02*
X122082362Y-62170659D01*
X120305012Y-64611000D02*
X120745000Y-64611000D01*
X119602000Y-64865000D02*
X120051012Y-64865000D01*
X120051012Y-64865000D02*
X120305012Y-64611000D01*
X125825000Y-68929000D02*
X124936000Y-68040000D01*
X126968000Y-68929000D02*
X125825000Y-68929000D01*
X128545323Y-67351677D02*
X126968000Y-68929000D01*
X128944375Y-67351677D02*
X128545323Y-67351677D01*
X133301357Y-74764292D02*
X130136292Y-74764292D01*
X130136292Y-74764292D02*
X129508000Y-74136000D01*
X129508000Y-74136000D02*
X129508000Y-73374000D01*
X129508000Y-73374000D02*
X127857000Y-71723000D01*
X102180140Y-89400140D02*
X102156000Y-89376000D01*
X102180140Y-92424000D02*
X102180140Y-89400140D01*
X107075923Y-78423658D02*
X107393422Y-78741157D01*
X107075923Y-78373923D02*
X107075923Y-78423658D01*
X106608132Y-77906132D02*
X107075923Y-78373923D01*
X97210132Y-77906132D02*
X106608132Y-77906132D01*
X96992751Y-77044107D02*
X106889147Y-77044107D01*
X107473541Y-77628501D02*
X107791040Y-77946000D01*
X106889147Y-77044107D02*
X107473541Y-77628501D01*
X119295000Y-73374000D02*
X119221000Y-73374000D01*
X119295000Y-73374000D02*
X120565000Y-72104000D01*
X120665000Y-72104000D02*
X120565000Y-72104000D01*
X99456000Y-89376000D02*
X97758000Y-89376000D01*
X108553000Y-79089000D02*
X108553000Y-78708000D01*
X97504000Y-81883000D02*
X105759000Y-81883000D01*
X96361000Y-83026000D02*
X97504000Y-81883000D01*
X96361000Y-87979000D02*
X96361000Y-83026000D01*
X105759000Y-81883000D02*
X108553000Y-79089000D01*
X97758000Y-89376000D02*
X96361000Y-87979000D01*
X123988012Y-76676000D02*
X123539000Y-76676000D01*
X128492000Y-76676000D02*
X123988012Y-76676000D01*
X129127000Y-77311000D02*
X128492000Y-76676000D01*
X129127000Y-79216000D02*
X129127000Y-77311000D01*
X127476000Y-80867000D02*
X129127000Y-79216000D01*
X123031000Y-78987400D02*
X123031000Y-86882990D01*
X123031000Y-86882990D02*
X119475000Y-90438990D01*
X124936000Y-78327000D02*
X123691400Y-78327000D01*
X123691400Y-78327000D02*
X123031000Y-78987400D01*
X118649501Y-94011519D02*
X118967000Y-93694020D01*
X115489740Y-97171280D02*
X118649501Y-94011519D01*
X115489740Y-99099120D02*
X115489740Y-97171280D01*
X114844012Y-92551000D02*
X114395000Y-92551000D01*
X119761000Y-92551000D02*
X114844012Y-92551000D01*
X121111000Y-93901000D02*
X119761000Y-92551000D01*
X122142000Y-93901000D02*
X121111000Y-93901000D01*
X124428000Y-93901000D02*
X122142000Y-93901000D01*
X109632501Y-76866501D02*
X108807010Y-76041010D01*
X109632501Y-81311511D02*
X109632501Y-76866501D01*
X109950000Y-81629010D02*
X109632501Y-81311511D01*
X106521001Y-76041001D02*
X105632001Y-76041001D01*
X106521010Y-76041010D02*
X106521001Y-76041001D01*
X108807010Y-76041010D02*
X106521010Y-76041010D01*
X105632001Y-76041001D02*
X105124000Y-75533000D01*
X105124000Y-74390000D02*
X105124000Y-74771000D01*
X105124000Y-74771000D02*
X105124000Y-75533000D01*
X110346241Y-69691001D02*
X109822999Y-69691001D01*
X110435141Y-69602101D02*
X110346241Y-69691001D01*
X109822999Y-69691001D02*
X105124000Y-74390000D01*
X110435141Y-69078859D02*
X110435141Y-69602101D01*
X110767880Y-68746120D02*
X110435141Y-69078859D01*
X115489740Y-68746120D02*
X110767880Y-68746120D01*
X105124000Y-75533000D02*
X104108000Y-75533000D01*
X104108000Y-75533000D02*
X104044499Y-75596501D01*
X104044499Y-75596501D02*
X103727000Y-75914000D01*
X123365000Y-73200000D02*
X124809000Y-74644000D01*
X123365000Y-72104000D02*
X123365000Y-73200000D01*
D27*
G36*
X136290148Y-79601536D02*
X131990000Y-79601536D01*
X131844726Y-79629722D01*
X131717044Y-79713596D01*
X131631574Y-79840216D01*
X131601536Y-79990000D01*
X131601536Y-81487480D01*
X131498482Y-81466981D01*
X131498476Y-81466982D01*
X131067463Y-81466982D01*
X131047185Y-81446668D01*
X130790550Y-81340104D01*
X130512669Y-81339861D01*
X130255849Y-81445978D01*
X130059186Y-81642297D01*
X129952622Y-81898932D01*
X129952379Y-82176813D01*
X130058496Y-82433633D01*
X130254815Y-82630296D01*
X130511450Y-82736860D01*
X130789331Y-82737103D01*
X131046151Y-82630986D01*
X131067191Y-82609982D01*
X131261758Y-82609982D01*
X131601536Y-82949759D01*
X131601536Y-84030000D01*
X131629722Y-84175274D01*
X131713596Y-84302956D01*
X131840216Y-84388426D01*
X131990000Y-84418464D01*
X136280337Y-84418464D01*
X135306667Y-88854069D01*
X131427330Y-87247196D01*
X131282328Y-87217643D01*
X131132268Y-87246270D01*
X131004849Y-87330544D01*
X130919777Y-87457431D01*
X130756340Y-87852000D01*
X130726464Y-87852000D01*
X130726464Y-86597000D01*
X130726464Y-85297000D01*
X130698278Y-85151726D01*
X130614404Y-85024044D01*
X130487784Y-84938574D01*
X130338000Y-84908536D01*
X130235807Y-84908536D01*
X130119112Y-84733888D01*
X130119108Y-84733885D01*
X129990663Y-84605439D01*
X129990728Y-84531124D01*
X129878823Y-84260295D01*
X129698501Y-84079657D01*
X129698501Y-79216000D01*
X129698500Y-79215994D01*
X129698500Y-77311005D01*
X129698500Y-77311000D01*
X129698501Y-77311000D01*
X129654998Y-77092297D01*
X129654997Y-77092296D01*
X129613889Y-77030774D01*
X129531112Y-76906889D01*
X129531112Y-76906888D01*
X129531108Y-76906885D01*
X128896112Y-76271888D01*
X128710704Y-76148003D01*
X128674417Y-76140785D01*
X128492000Y-76104499D01*
X128491994Y-76104500D01*
X124009298Y-76104500D01*
X123956795Y-76051905D01*
X123686162Y-75939528D01*
X123393124Y-75939272D01*
X123122295Y-76051177D01*
X122914905Y-76258205D01*
X122802528Y-76528838D01*
X122802272Y-76821876D01*
X122914177Y-77092705D01*
X123121205Y-77300095D01*
X123391838Y-77412472D01*
X123684876Y-77412728D01*
X123694931Y-77408573D01*
X123683936Y-77463400D01*
X123683936Y-77756983D01*
X123472697Y-77799002D01*
X123411174Y-77840110D01*
X123287288Y-77922888D01*
X123287285Y-77922891D01*
X122626888Y-78583288D01*
X122503003Y-78768696D01*
X122495785Y-78804982D01*
X122459499Y-78987400D01*
X122459500Y-78987405D01*
X122459500Y-86646266D01*
X119365371Y-89740394D01*
X119336669Y-89740369D01*
X119079849Y-89846486D01*
X118883186Y-90042805D01*
X118776622Y-90299440D01*
X118776379Y-90577321D01*
X118882496Y-90834141D01*
X119078815Y-91030804D01*
X119335450Y-91137368D01*
X119613331Y-91137611D01*
X119870151Y-91031494D01*
X120066814Y-90835175D01*
X120173378Y-90578540D01*
X120173403Y-90548809D01*
X122471181Y-88251031D01*
X122580150Y-88360000D01*
X123793000Y-88360000D01*
X123793000Y-87147150D01*
X123634250Y-86988400D01*
X123581532Y-86988400D01*
X123602500Y-86882990D01*
X123602500Y-79224123D01*
X123683936Y-79142687D01*
X123683936Y-79190600D01*
X123712122Y-79335874D01*
X123795996Y-79463556D01*
X123922616Y-79549026D01*
X124072400Y-79579064D01*
X125799600Y-79579064D01*
X125944874Y-79550878D01*
X126072556Y-79467004D01*
X126158026Y-79340384D01*
X126188064Y-79190600D01*
X126188064Y-77463400D01*
X126159878Y-77318126D01*
X126113483Y-77247500D01*
X126870027Y-77247500D01*
X126571552Y-77446935D01*
X126301757Y-77850712D01*
X126207017Y-78327000D01*
X126301757Y-78803288D01*
X126571552Y-79207065D01*
X126975329Y-79476860D01*
X127451617Y-79571600D01*
X127500383Y-79571600D01*
X127976671Y-79476860D01*
X128221518Y-79313258D01*
X127844022Y-79690754D01*
X127500383Y-79622400D01*
X127451617Y-79622400D01*
X126975329Y-79717140D01*
X126571552Y-79986935D01*
X126301757Y-80390712D01*
X126207017Y-80867000D01*
X126301757Y-81343288D01*
X126571552Y-81747065D01*
X126975329Y-82016860D01*
X126977661Y-82017323D01*
X126587510Y-82200179D01*
X126204983Y-82619266D01*
X126204983Y-80867000D01*
X126110243Y-80390712D01*
X125840448Y-79986935D01*
X125436671Y-79717140D01*
X124960383Y-79622400D01*
X124911617Y-79622400D01*
X124435329Y-79717140D01*
X124031552Y-79986935D01*
X123761757Y-80390712D01*
X123667017Y-80867000D01*
X123761757Y-81343288D01*
X124031552Y-81747065D01*
X124435329Y-82016860D01*
X124911617Y-82111600D01*
X124960383Y-82111600D01*
X125436671Y-82016860D01*
X125840448Y-81747065D01*
X126110243Y-81343288D01*
X126204983Y-80867000D01*
X126204983Y-82619266D01*
X126193312Y-82632053D01*
X126085159Y-82893171D01*
X125840448Y-82526935D01*
X125436671Y-82257140D01*
X124960383Y-82162400D01*
X124911617Y-82162400D01*
X124435329Y-82257140D01*
X124031552Y-82526935D01*
X123761757Y-82930712D01*
X123667017Y-83407000D01*
X123761757Y-83883288D01*
X124031552Y-84287065D01*
X124435329Y-84556860D01*
X124911617Y-84651600D01*
X124960383Y-84651600D01*
X125436671Y-84556860D01*
X125840448Y-84287065D01*
X126085159Y-83920828D01*
X126193312Y-84181947D01*
X126587510Y-84613821D01*
X127116973Y-84861968D01*
X127349000Y-84741469D01*
X127349000Y-83534000D01*
X127329000Y-83534000D01*
X127329000Y-83280000D01*
X127349000Y-83280000D01*
X127349000Y-83260000D01*
X127603000Y-83260000D01*
X127603000Y-83280000D01*
X128809817Y-83280000D01*
X128930958Y-83047974D01*
X128758688Y-82632053D01*
X128364490Y-82200179D01*
X127974338Y-82017323D01*
X127976671Y-82016860D01*
X128380448Y-81747065D01*
X128650243Y-81343288D01*
X128744983Y-80867000D01*
X128668537Y-80482685D01*
X129531108Y-79620114D01*
X129531112Y-79620112D01*
X129531112Y-79620111D01*
X129613889Y-79496226D01*
X129654997Y-79434704D01*
X129654998Y-79434703D01*
X129698500Y-79216000D01*
X129698501Y-79216000D01*
X129698501Y-84079657D01*
X129671795Y-84052905D01*
X129401162Y-83940528D01*
X129108124Y-83940272D01*
X128837295Y-84052177D01*
X128794914Y-84094483D01*
X128930958Y-83766026D01*
X128809817Y-83534000D01*
X127603000Y-83534000D01*
X127603000Y-84741469D01*
X127835027Y-84861968D01*
X128364490Y-84613821D01*
X128581276Y-84376314D01*
X128517528Y-84529838D01*
X128517272Y-84822876D01*
X128591726Y-85003068D01*
X128565044Y-85020596D01*
X128479574Y-85147216D01*
X128449536Y-85297000D01*
X128449536Y-86597000D01*
X128477722Y-86742274D01*
X128561596Y-86869956D01*
X128688216Y-86955426D01*
X128838000Y-86985464D01*
X130338000Y-86985464D01*
X130483274Y-86957278D01*
X130610956Y-86873404D01*
X130696426Y-86746784D01*
X130726464Y-86597000D01*
X130726464Y-87852000D01*
X127586500Y-87852000D01*
X127586500Y-86985464D01*
X127638000Y-86985464D01*
X127783274Y-86957278D01*
X127910956Y-86873404D01*
X127996426Y-86746784D01*
X128026464Y-86597000D01*
X128026464Y-85297000D01*
X127998278Y-85151726D01*
X127914404Y-85024044D01*
X127787784Y-84938574D01*
X127638000Y-84908536D01*
X126138000Y-84908536D01*
X125992726Y-84936722D01*
X125865044Y-85020596D01*
X125779574Y-85147216D01*
X125749536Y-85297000D01*
X125749536Y-86597000D01*
X125777722Y-86742274D01*
X125861596Y-86869956D01*
X125988216Y-86955426D01*
X126138000Y-86985464D01*
X126443500Y-86985464D01*
X126443500Y-87242400D01*
X126435617Y-87242400D01*
X125959329Y-87337140D01*
X125555552Y-87606935D01*
X125418600Y-87811898D01*
X125418600Y-87749709D01*
X125418600Y-87497090D01*
X125321927Y-87263701D01*
X125143298Y-87085073D01*
X124909909Y-86988400D01*
X124205750Y-86988400D01*
X124047000Y-87147150D01*
X124047000Y-88360000D01*
X124067000Y-88360000D01*
X124067000Y-88614000D01*
X124047000Y-88614000D01*
X124047000Y-89826850D01*
X124205750Y-89985600D01*
X124909909Y-89985600D01*
X125143298Y-89888927D01*
X125321927Y-89710299D01*
X125418600Y-89476910D01*
X125418600Y-89224291D01*
X125418600Y-89162101D01*
X125555552Y-89367065D01*
X125888500Y-89589533D01*
X125888500Y-90282276D01*
X125541276Y-90629500D01*
X125466464Y-90629500D01*
X125466464Y-90451000D01*
X125438278Y-90305726D01*
X125354404Y-90178044D01*
X125227784Y-90092574D01*
X125078000Y-90062536D01*
X123778000Y-90062536D01*
X123632726Y-90090722D01*
X123505044Y-90174596D01*
X123419574Y-90301216D01*
X123418824Y-90304953D01*
X123330327Y-90091302D01*
X123224625Y-89985600D01*
X123634250Y-89985600D01*
X123793000Y-89826850D01*
X123793000Y-88614000D01*
X122580150Y-88614000D01*
X122421400Y-88772750D01*
X122421400Y-89224291D01*
X122421400Y-89476910D01*
X122518073Y-89710299D01*
X122623774Y-89816000D01*
X122427750Y-89816000D01*
X122269000Y-89974750D01*
X122269000Y-91074000D01*
X122289000Y-91074000D01*
X122289000Y-91328000D01*
X122269000Y-91328000D01*
X122269000Y-92427250D01*
X122427750Y-92586000D01*
X122665691Y-92586000D01*
X122918310Y-92586000D01*
X123151699Y-92489327D01*
X123330327Y-92310698D01*
X123418594Y-92097601D01*
X123501596Y-92223956D01*
X123628216Y-92309426D01*
X123778000Y-92339464D01*
X125078000Y-92339464D01*
X125223274Y-92311278D01*
X125350956Y-92227404D01*
X125436426Y-92100784D01*
X125466464Y-91951000D01*
X125466464Y-91772500D01*
X125777994Y-91772500D01*
X125778000Y-91772501D01*
X125778000Y-91772500D01*
X125960417Y-91736214D01*
X125996703Y-91728997D01*
X125996704Y-91728997D01*
X126182112Y-91605112D01*
X126864108Y-90923114D01*
X126864112Y-90923112D01*
X126864112Y-90923111D01*
X126946889Y-90799226D01*
X126987997Y-90737704D01*
X126987998Y-90737703D01*
X127031500Y-90519000D01*
X127031501Y-90519000D01*
X127031500Y-90518994D01*
X127031500Y-89589533D01*
X127364448Y-89367065D01*
X127528195Y-89122000D01*
X130341712Y-89122000D01*
X130344825Y-89138313D01*
X130429099Y-89265731D01*
X130555986Y-89350803D01*
X134516324Y-90991228D01*
X134418615Y-91235502D01*
X130455314Y-89593850D01*
X130310312Y-89564297D01*
X130160252Y-89592924D01*
X130032833Y-89677198D01*
X129947761Y-89804085D01*
X129783146Y-90201500D01*
X129762000Y-90201500D01*
X129543296Y-90245003D01*
X129357888Y-90368888D01*
X129357885Y-90368891D01*
X128293439Y-91433336D01*
X128219124Y-91433272D01*
X127948295Y-91545177D01*
X127740905Y-91752205D01*
X127628528Y-92022838D01*
X127628272Y-92315876D01*
X127740177Y-92586705D01*
X127947205Y-92794095D01*
X128217838Y-92906472D01*
X128510876Y-92906728D01*
X128781705Y-92794823D01*
X128989095Y-92587795D01*
X129101472Y-92317162D01*
X129101537Y-92241685D01*
X129627666Y-91715556D01*
X133502222Y-93320449D01*
X131005655Y-97119572D01*
X127981624Y-94095541D01*
X127858969Y-94012748D01*
X127709376Y-93981770D01*
X127559406Y-94010868D01*
X127432252Y-94095541D01*
X126371592Y-95156201D01*
X126288799Y-95278856D01*
X126257821Y-95428449D01*
X126286919Y-95578419D01*
X126371592Y-95705573D01*
X129447706Y-98781687D01*
X129261687Y-98967706D01*
X126185573Y-95891592D01*
X126062918Y-95808799D01*
X125913325Y-95777821D01*
X125763355Y-95806919D01*
X125636201Y-95891592D01*
X125466464Y-96061328D01*
X125466464Y-94651000D01*
X125466464Y-93151000D01*
X125438278Y-93005726D01*
X125354404Y-92878044D01*
X125227784Y-92792574D01*
X125078000Y-92762536D01*
X123778000Y-92762536D01*
X123632726Y-92790722D01*
X123505044Y-92874596D01*
X123419574Y-93001216D01*
X123389536Y-93151000D01*
X123389536Y-93329500D01*
X123180464Y-93329500D01*
X123180464Y-93151000D01*
X123152278Y-93005726D01*
X123068404Y-92878044D01*
X122941784Y-92792574D01*
X122792000Y-92762536D01*
X122015000Y-92762536D01*
X122015000Y-92427250D01*
X122015000Y-91328000D01*
X122015000Y-91074000D01*
X122015000Y-89974750D01*
X121856250Y-89816000D01*
X121618309Y-89816000D01*
X121365690Y-89816000D01*
X121132301Y-89912673D01*
X120953673Y-90091302D01*
X120857000Y-90324691D01*
X120857000Y-90915250D01*
X121015750Y-91074000D01*
X122015000Y-91074000D01*
X122015000Y-91328000D01*
X121015750Y-91328000D01*
X120857000Y-91486750D01*
X120857000Y-92077309D01*
X120953673Y-92310698D01*
X121132301Y-92489327D01*
X121365690Y-92586000D01*
X121618309Y-92586000D01*
X121856250Y-92586000D01*
X122015000Y-92427250D01*
X122015000Y-92762536D01*
X121492000Y-92762536D01*
X121346726Y-92790722D01*
X121219044Y-92874596D01*
X121133574Y-93001216D01*
X121114508Y-93096285D01*
X120165112Y-92146888D01*
X119979704Y-92023003D01*
X119943417Y-92015785D01*
X119761000Y-91979499D01*
X119760994Y-91979500D01*
X117717000Y-91979500D01*
X117717000Y-70792250D01*
X117717000Y-69818000D01*
X117717000Y-69564000D01*
X117717000Y-68589750D01*
X117717000Y-68125250D01*
X117717000Y-67151000D01*
X117717000Y-66897000D01*
X117717000Y-65922750D01*
X117558250Y-65764000D01*
X116967691Y-65764000D01*
X116734302Y-65860673D01*
X116555673Y-66039301D01*
X116459000Y-66272690D01*
X116459000Y-66525309D01*
X116459000Y-66738250D01*
X116617750Y-66897000D01*
X117717000Y-66897000D01*
X117717000Y-67151000D01*
X116617750Y-67151000D01*
X116459000Y-67309750D01*
X116459000Y-67522691D01*
X116459000Y-67775310D01*
X116555673Y-68008699D01*
X116734302Y-68187327D01*
X116967691Y-68284000D01*
X117558250Y-68284000D01*
X117717000Y-68125250D01*
X117717000Y-68589750D01*
X117558250Y-68431000D01*
X116967691Y-68431000D01*
X116734302Y-68527673D01*
X116555673Y-68706301D01*
X116459000Y-68939690D01*
X116459000Y-69192309D01*
X116459000Y-69405250D01*
X116617750Y-69564000D01*
X117717000Y-69564000D01*
X117717000Y-69818000D01*
X116617750Y-69818000D01*
X116459000Y-69976750D01*
X116459000Y-70189691D01*
X116459000Y-70442310D01*
X116555673Y-70675699D01*
X116734302Y-70854327D01*
X116967691Y-70951000D01*
X117558250Y-70951000D01*
X117717000Y-70792250D01*
X117717000Y-91979500D01*
X116378584Y-91979500D01*
X116378584Y-69246500D01*
X116378584Y-68245740D01*
X116378584Y-65548260D01*
X116378584Y-64547500D01*
X116350398Y-64402226D01*
X116266524Y-64274544D01*
X116139904Y-64189074D01*
X115990120Y-64159036D01*
X114989360Y-64159036D01*
X114844086Y-64187222D01*
X114716404Y-64271096D01*
X114630934Y-64397716D01*
X114600896Y-64547500D01*
X114600896Y-65548260D01*
X114629082Y-65693534D01*
X114712956Y-65821216D01*
X114839576Y-65906686D01*
X114989360Y-65936724D01*
X115990120Y-65936724D01*
X116135394Y-65908538D01*
X116263076Y-65824664D01*
X116348546Y-65698044D01*
X116378584Y-65548260D01*
X116378584Y-68245740D01*
X116350398Y-68100466D01*
X116266524Y-67972784D01*
X116139904Y-67887314D01*
X115990120Y-67857276D01*
X114989360Y-67857276D01*
X114844086Y-67885462D01*
X114716404Y-67969336D01*
X114630934Y-68095956D01*
X114615158Y-68174620D01*
X110767885Y-68174620D01*
X110767880Y-68174619D01*
X110625640Y-68202912D01*
X110625640Y-65674570D01*
X110625640Y-65421951D01*
X110625640Y-65333630D01*
X110625640Y-64762130D01*
X110625640Y-64673809D01*
X110625640Y-64421190D01*
X110528967Y-64187801D01*
X110350338Y-64009173D01*
X110116949Y-63912500D01*
X109776010Y-63912500D01*
X109617260Y-64071250D01*
X109617260Y-64920880D01*
X110466890Y-64920880D01*
X110625640Y-64762130D01*
X110625640Y-65333630D01*
X110466890Y-65174880D01*
X109617260Y-65174880D01*
X109617260Y-66024510D01*
X109776010Y-66183260D01*
X110116949Y-66183260D01*
X110350338Y-66086587D01*
X110528967Y-65907959D01*
X110625640Y-65674570D01*
X110625640Y-68202912D01*
X110585462Y-68210905D01*
X110549176Y-68218123D01*
X110379104Y-68331760D01*
X110379104Y-68245740D01*
X110350918Y-68100466D01*
X110267044Y-67972784D01*
X110140424Y-67887314D01*
X109990640Y-67857276D01*
X109363260Y-67857276D01*
X109363260Y-66024510D01*
X109363260Y-65174880D01*
X109363260Y-64920880D01*
X109363260Y-64071250D01*
X109204510Y-63912500D01*
X108863571Y-63912500D01*
X108630182Y-64009173D01*
X108451553Y-64187801D01*
X108354880Y-64421190D01*
X108354880Y-64673809D01*
X108354880Y-64762130D01*
X108513630Y-64920880D01*
X109363260Y-64920880D01*
X109363260Y-65174880D01*
X108513630Y-65174880D01*
X108354880Y-65333630D01*
X108354880Y-65421951D01*
X108354880Y-65674570D01*
X108451553Y-65907959D01*
X108630182Y-66086587D01*
X108863571Y-66183260D01*
X109204510Y-66183260D01*
X109363260Y-66024510D01*
X109363260Y-67857276D01*
X108989880Y-67857276D01*
X108844606Y-67885462D01*
X108716924Y-67969336D01*
X108631454Y-68095956D01*
X108601416Y-68245740D01*
X108601416Y-69246500D01*
X108629602Y-69391774D01*
X108713476Y-69519456D01*
X108840096Y-69604926D01*
X108989880Y-69634964D01*
X109070812Y-69634964D01*
X107384728Y-71321048D01*
X107384728Y-69926116D01*
X107272823Y-69655287D01*
X107065795Y-69447897D01*
X106988464Y-69415786D01*
X106988464Y-67875000D01*
X106960278Y-67729726D01*
X106876404Y-67602044D01*
X106749784Y-67516574D01*
X106600000Y-67486536D01*
X104600000Y-67486536D01*
X104454726Y-67514722D01*
X104327044Y-67598596D01*
X104241574Y-67725216D01*
X104211536Y-67875000D01*
X104211536Y-69475000D01*
X104239722Y-69620274D01*
X104323596Y-69747956D01*
X104431120Y-69820536D01*
X104100000Y-69820536D01*
X103954726Y-69848722D01*
X103827044Y-69932596D01*
X103741574Y-70059216D01*
X103735000Y-70091997D01*
X103735000Y-70082690D01*
X103638327Y-69849301D01*
X103459698Y-69670673D01*
X103235000Y-69577599D01*
X103235000Y-69348691D01*
X103235000Y-68960750D01*
X103235000Y-68389250D01*
X103235000Y-68001309D01*
X103235000Y-67748690D01*
X103138327Y-67515301D01*
X102959698Y-67336673D01*
X102726309Y-67240000D01*
X101885750Y-67240000D01*
X101727000Y-67398750D01*
X101727000Y-68548000D01*
X103076250Y-68548000D01*
X103235000Y-68389250D01*
X103235000Y-68960750D01*
X103076250Y-68802000D01*
X101727000Y-68802000D01*
X101727000Y-68822000D01*
X101473000Y-68822000D01*
X101473000Y-68802000D01*
X100123750Y-68802000D01*
X99965000Y-68960750D01*
X99965000Y-69348691D01*
X99965000Y-69601310D01*
X100061673Y-69834699D01*
X100240302Y-70013327D01*
X100473691Y-70110000D01*
X100965000Y-70110000D01*
X100965000Y-70335309D01*
X100965000Y-70548250D01*
X101123750Y-70707000D01*
X102223000Y-70707000D01*
X102223000Y-70687000D01*
X102477000Y-70687000D01*
X102477000Y-70707000D01*
X102497000Y-70707000D01*
X102497000Y-70961000D01*
X102477000Y-70961000D01*
X102477000Y-71935250D01*
X102635750Y-72094000D01*
X103226309Y-72094000D01*
X103459698Y-71997327D01*
X103638327Y-71818699D01*
X103735000Y-71585310D01*
X103735000Y-71579936D01*
X103739722Y-71604274D01*
X103823596Y-71731956D01*
X103950216Y-71817426D01*
X104100000Y-71847464D01*
X105600000Y-71847464D01*
X105745274Y-71819278D01*
X105872956Y-71735404D01*
X105958426Y-71608784D01*
X105988464Y-71459000D01*
X105988464Y-70643492D01*
X106177701Y-70643492D01*
X106230205Y-70696087D01*
X106500838Y-70808464D01*
X106793876Y-70808720D01*
X107064705Y-70696815D01*
X107272095Y-70489787D01*
X107384472Y-70219154D01*
X107384728Y-69926116D01*
X107384728Y-71321048D01*
X104719888Y-73985888D01*
X104596003Y-74171296D01*
X104588785Y-74207582D01*
X104552499Y-74390000D01*
X104552500Y-74390005D01*
X104552500Y-74771000D01*
X104552500Y-74961500D01*
X104108005Y-74961500D01*
X104108000Y-74961499D01*
X103925582Y-74997785D01*
X103889296Y-75005003D01*
X103703888Y-75128888D01*
X103655439Y-75177336D01*
X103581124Y-75177272D01*
X103310295Y-75289177D01*
X103102905Y-75496205D01*
X102990528Y-75766838D01*
X102990272Y-76059876D01*
X103102177Y-76330705D01*
X103243831Y-76472607D01*
X102223000Y-76472607D01*
X102223000Y-71935250D01*
X102223000Y-70961000D01*
X101123750Y-70961000D01*
X100965000Y-71119750D01*
X100965000Y-71332691D01*
X100965000Y-71585310D01*
X101061673Y-71818699D01*
X101240302Y-71997327D01*
X101473691Y-72094000D01*
X102064250Y-72094000D01*
X102223000Y-71935250D01*
X102223000Y-76472607D01*
X97409214Y-76472607D01*
X97388936Y-76452293D01*
X97132301Y-76345729D01*
X96854420Y-76345486D01*
X96597600Y-76451603D01*
X96400937Y-76647922D01*
X96294373Y-76904557D01*
X96294130Y-77182438D01*
X96400247Y-77439258D01*
X96574985Y-77614302D01*
X96511754Y-77766582D01*
X96511511Y-78044463D01*
X96617628Y-78301283D01*
X96813947Y-78497946D01*
X97070582Y-78604510D01*
X97348463Y-78604753D01*
X97605283Y-78498636D01*
X97626323Y-78477632D01*
X104700792Y-78477632D01*
X104679632Y-78528592D01*
X104679606Y-78558322D01*
X103672428Y-79565500D01*
X99327464Y-79565500D01*
X99327464Y-79137000D01*
X99299278Y-78991726D01*
X99215404Y-78864044D01*
X99088784Y-78778574D01*
X98939000Y-78748536D01*
X97339000Y-78748536D01*
X97193726Y-78776722D01*
X97066044Y-78860596D01*
X96980574Y-78987216D01*
X96950536Y-79137000D01*
X96950536Y-81137000D01*
X96978722Y-81282274D01*
X97062596Y-81409956D01*
X97132466Y-81457119D01*
X97099888Y-81478888D01*
X97099885Y-81478891D01*
X95956888Y-82621888D01*
X95833003Y-82807296D01*
X95825785Y-82843582D01*
X95789499Y-83026000D01*
X95789500Y-83026005D01*
X95789500Y-87978994D01*
X95789499Y-87979000D01*
X95825785Y-88161417D01*
X95833003Y-88197704D01*
X95956888Y-88383112D01*
X97353885Y-89780108D01*
X97353888Y-89780112D01*
X97539296Y-89903997D01*
X97539297Y-89903997D01*
X97758000Y-89947500D01*
X98317536Y-89947500D01*
X98317536Y-90026000D01*
X98345722Y-90171274D01*
X98429596Y-90298956D01*
X98556216Y-90384426D01*
X98706000Y-90414464D01*
X100206000Y-90414464D01*
X100351274Y-90386278D01*
X100478956Y-90302404D01*
X100564426Y-90175784D01*
X100594464Y-90026000D01*
X100594464Y-88726000D01*
X100566278Y-88580726D01*
X100482404Y-88453044D01*
X100355784Y-88367574D01*
X100206000Y-88337536D01*
X99574000Y-88337536D01*
X99574000Y-85263309D01*
X99574000Y-84422750D01*
X99574000Y-83851250D01*
X99574000Y-83010691D01*
X99477327Y-82777302D01*
X99298699Y-82598673D01*
X99065310Y-82502000D01*
X98812691Y-82502000D01*
X98424750Y-82502000D01*
X98266000Y-82660750D01*
X98266000Y-84010000D01*
X99415250Y-84010000D01*
X99574000Y-83851250D01*
X99574000Y-84422750D01*
X99415250Y-84264000D01*
X98266000Y-84264000D01*
X98266000Y-85613250D01*
X98424750Y-85772000D01*
X98812691Y-85772000D01*
X99065310Y-85772000D01*
X99298699Y-85675327D01*
X99477327Y-85496698D01*
X99574000Y-85263309D01*
X99574000Y-88337536D01*
X98706000Y-88337536D01*
X98560726Y-88365722D01*
X98433044Y-88449596D01*
X98347574Y-88576216D01*
X98317536Y-88726000D01*
X98317536Y-88804500D01*
X97994723Y-88804500D01*
X96932500Y-87742276D01*
X96932500Y-85628525D01*
X96979301Y-85675327D01*
X97212690Y-85772000D01*
X97465309Y-85772000D01*
X97853250Y-85772000D01*
X98012000Y-85613250D01*
X98012000Y-84264000D01*
X97992000Y-84264000D01*
X97992000Y-84010000D01*
X98012000Y-84010000D01*
X98012000Y-82660750D01*
X97853250Y-82502000D01*
X97693223Y-82502000D01*
X97740723Y-82454500D01*
X105758994Y-82454500D01*
X105759000Y-82454501D01*
X105759000Y-82454500D01*
X105941417Y-82418214D01*
X105977703Y-82410997D01*
X105977704Y-82410997D01*
X106163112Y-82287112D01*
X108957108Y-79493114D01*
X108957112Y-79493112D01*
X108957112Y-79493111D01*
X109039889Y-79369226D01*
X109061001Y-79337630D01*
X109061001Y-81311505D01*
X109061000Y-81311511D01*
X109097286Y-81493928D01*
X109104504Y-81530215D01*
X109228389Y-81715623D01*
X109251404Y-81738638D01*
X109251379Y-81767341D01*
X109357496Y-82024161D01*
X109553815Y-82220824D01*
X109810450Y-82327388D01*
X110088331Y-82327631D01*
X110345151Y-82221514D01*
X110541814Y-82025195D01*
X110648378Y-81768560D01*
X110648621Y-81490679D01*
X110542504Y-81233859D01*
X110346185Y-81037196D01*
X110204001Y-80978156D01*
X110204001Y-76866506D01*
X110204001Y-76866501D01*
X110204002Y-76866501D01*
X110160499Y-76647798D01*
X110160498Y-76647797D01*
X110119390Y-76586275D01*
X110036613Y-76462390D01*
X110036613Y-76462389D01*
X110036609Y-76462386D01*
X109211122Y-75636898D01*
X109025714Y-75513013D01*
X108989427Y-75505795D01*
X108807010Y-75469509D01*
X108807004Y-75469510D01*
X106521051Y-75469510D01*
X106521001Y-75469500D01*
X106520995Y-75469501D01*
X105868724Y-75469501D01*
X105695500Y-75296276D01*
X105695500Y-74771000D01*
X105695500Y-74626723D01*
X110059722Y-70262501D01*
X110346235Y-70262501D01*
X110346241Y-70262502D01*
X110346241Y-70262501D01*
X110528658Y-70226215D01*
X110564944Y-70218998D01*
X110564945Y-70218998D01*
X110750353Y-70095113D01*
X110839249Y-70006215D01*
X110839253Y-70006213D01*
X110839253Y-70006212D01*
X110922030Y-69882327D01*
X110963138Y-69820805D01*
X110963139Y-69820804D01*
X111006641Y-69602101D01*
X111006642Y-69602101D01*
X111006641Y-69602095D01*
X111006641Y-69317620D01*
X114614694Y-69317620D01*
X114629082Y-69391774D01*
X114712956Y-69519456D01*
X114839576Y-69604926D01*
X114989360Y-69634964D01*
X115990120Y-69634964D01*
X116135394Y-69606778D01*
X116263076Y-69522904D01*
X116348546Y-69396284D01*
X116378584Y-69246500D01*
X116378584Y-91979500D01*
X114865298Y-91979500D01*
X114812795Y-91926905D01*
X114542162Y-91814528D01*
X114249124Y-91814272D01*
X113978295Y-91926177D01*
X113770905Y-92133205D01*
X113658528Y-92403838D01*
X113658272Y-92696876D01*
X113770177Y-92967705D01*
X113977205Y-93175095D01*
X114247838Y-93287472D01*
X114540876Y-93287728D01*
X114811705Y-93175823D01*
X114865121Y-93122500D01*
X118496898Y-93122500D01*
X118342905Y-93276225D01*
X118230528Y-93546858D01*
X118230462Y-93622334D01*
X116378584Y-95474212D01*
X116378584Y-94900500D01*
X116350398Y-94755226D01*
X116266524Y-94627544D01*
X116139904Y-94542074D01*
X115990120Y-94512036D01*
X114989360Y-94512036D01*
X114844086Y-94540222D01*
X114716404Y-94624096D01*
X114630934Y-94750716D01*
X114600896Y-94900500D01*
X114600896Y-95901260D01*
X114629082Y-96046534D01*
X114712956Y-96174216D01*
X114839576Y-96259686D01*
X114989360Y-96289724D01*
X115563072Y-96289724D01*
X115085628Y-96767168D01*
X114961743Y-96952576D01*
X114954525Y-96988862D01*
X114918239Y-97171280D01*
X114918240Y-97171285D01*
X114918240Y-98224074D01*
X114844086Y-98238462D01*
X114716404Y-98322336D01*
X114630934Y-98448956D01*
X114600896Y-98598740D01*
X114600896Y-99599500D01*
X114629082Y-99744774D01*
X114712956Y-99872456D01*
X114839576Y-99957926D01*
X114989360Y-99987964D01*
X115990120Y-99987964D01*
X116135394Y-99959778D01*
X116263076Y-99875904D01*
X116348546Y-99749284D01*
X116378584Y-99599500D01*
X116378584Y-98598740D01*
X116350398Y-98453466D01*
X116266524Y-98325784D01*
X116139904Y-98240314D01*
X116061240Y-98224538D01*
X116061240Y-97408003D01*
X119038559Y-94430683D01*
X119112876Y-94430748D01*
X119383705Y-94318843D01*
X119591095Y-94111815D01*
X119703472Y-93841182D01*
X119703728Y-93548144D01*
X119591823Y-93277315D01*
X119437278Y-93122500D01*
X119524276Y-93122500D01*
X120706885Y-94305108D01*
X120706888Y-94305112D01*
X120892296Y-94428997D01*
X120892297Y-94428997D01*
X121103536Y-94471015D01*
X121103536Y-94651000D01*
X121131722Y-94796274D01*
X121215596Y-94923956D01*
X121342216Y-95009426D01*
X121492000Y-95039464D01*
X122792000Y-95039464D01*
X122937274Y-95011278D01*
X123064956Y-94927404D01*
X123150426Y-94800784D01*
X123180464Y-94651000D01*
X123180464Y-94472500D01*
X123389536Y-94472500D01*
X123389536Y-94651000D01*
X123417722Y-94796274D01*
X123501596Y-94923956D01*
X123628216Y-95009426D01*
X123778000Y-95039464D01*
X125078000Y-95039464D01*
X125223274Y-95011278D01*
X125350956Y-94927404D01*
X125436426Y-94800784D01*
X125466464Y-94651000D01*
X125466464Y-96061328D01*
X125453542Y-96074250D01*
X125298948Y-96043499D01*
X125298942Y-96043500D01*
X125279298Y-96043500D01*
X125226795Y-95990905D01*
X124956162Y-95878528D01*
X124663124Y-95878272D01*
X124392295Y-95990177D01*
X124184905Y-96197205D01*
X124072528Y-96467838D01*
X124072272Y-96760876D01*
X124184177Y-97031705D01*
X124391205Y-97239095D01*
X124471033Y-97272242D01*
X124490868Y-97374470D01*
X124575541Y-97501624D01*
X127605213Y-100531296D01*
X123859169Y-103106702D01*
X123838899Y-103115048D01*
X122177457Y-99103970D01*
X122095822Y-98980541D01*
X121969471Y-98894675D01*
X121819782Y-98864167D01*
X121669904Y-98893735D01*
X120284085Y-99467761D01*
X120160656Y-99549396D01*
X120074790Y-99675747D01*
X120044282Y-99825436D01*
X120073850Y-99975314D01*
X121733469Y-103981990D01*
X121490212Y-104082155D01*
X119830803Y-100075986D01*
X119749168Y-99952557D01*
X119622817Y-99866691D01*
X119473128Y-99836183D01*
X119323250Y-99865751D01*
X118977987Y-100008763D01*
X118941663Y-99972439D01*
X118941728Y-99898124D01*
X118829823Y-99627295D01*
X118622795Y-99419905D01*
X118352162Y-99307528D01*
X118059124Y-99307272D01*
X117788295Y-99419177D01*
X117580905Y-99626205D01*
X117468528Y-99896838D01*
X117468272Y-100189876D01*
X117580177Y-100460705D01*
X117743840Y-100624654D01*
X117728136Y-100647763D01*
X117697628Y-100797452D01*
X117727196Y-100947330D01*
X119370181Y-104913848D01*
X114898464Y-105808191D01*
X114898464Y-101510000D01*
X114870278Y-101364726D01*
X114786404Y-101237044D01*
X114659784Y-101151574D01*
X114510000Y-101121536D01*
X113010000Y-101121536D01*
X112864726Y-101149722D01*
X112737044Y-101233596D01*
X112651574Y-101360216D01*
X112621536Y-101510000D01*
X112621536Y-105886000D01*
X112358464Y-105886000D01*
X112358464Y-101510000D01*
X112330278Y-101364726D01*
X112246404Y-101237044D01*
X112119784Y-101151574D01*
X111970000Y-101121536D01*
X111778478Y-101121536D01*
X111747997Y-100968296D01*
X111624112Y-100782888D01*
X111624108Y-100782885D01*
X111448663Y-100607439D01*
X111448728Y-100533124D01*
X111336823Y-100262295D01*
X111129795Y-100054905D01*
X110859162Y-99942528D01*
X110625640Y-99942323D01*
X110625640Y-96027570D01*
X110625640Y-95774951D01*
X110625640Y-95686630D01*
X110625640Y-95115130D01*
X110625640Y-95026809D01*
X110625640Y-94774190D01*
X110528967Y-94540801D01*
X110350338Y-94362173D01*
X110116949Y-94265500D01*
X109776010Y-94265500D01*
X109617260Y-94424250D01*
X109617260Y-95273880D01*
X110466890Y-95273880D01*
X110625640Y-95115130D01*
X110625640Y-95686630D01*
X110466890Y-95527880D01*
X109617260Y-95527880D01*
X109617260Y-96377510D01*
X109776010Y-96536260D01*
X110116949Y-96536260D01*
X110350338Y-96439587D01*
X110528967Y-96260959D01*
X110625640Y-96027570D01*
X110625640Y-99942323D01*
X110566124Y-99942272D01*
X110379104Y-100019547D01*
X110379104Y-99599500D01*
X110379104Y-98598740D01*
X110350918Y-98453466D01*
X110267044Y-98325784D01*
X110140424Y-98240314D01*
X109990640Y-98210276D01*
X109363260Y-98210276D01*
X109363260Y-96377510D01*
X109363260Y-95527880D01*
X109363260Y-95273880D01*
X109363260Y-94424250D01*
X109204510Y-94265500D01*
X108863571Y-94265500D01*
X108630182Y-94362173D01*
X108451553Y-94540801D01*
X108354880Y-94774190D01*
X108354880Y-95026809D01*
X108354880Y-95115130D01*
X108513630Y-95273880D01*
X109363260Y-95273880D01*
X109363260Y-95527880D01*
X108513630Y-95527880D01*
X108354880Y-95686630D01*
X108354880Y-95774951D01*
X108354880Y-96027570D01*
X108451553Y-96260959D01*
X108630182Y-96439587D01*
X108863571Y-96536260D01*
X109204510Y-96536260D01*
X109363260Y-96377510D01*
X109363260Y-98210276D01*
X108989880Y-98210276D01*
X108844606Y-98238462D01*
X108716924Y-98322336D01*
X108631454Y-98448956D01*
X108601416Y-98598740D01*
X108601416Y-99599500D01*
X108629602Y-99744774D01*
X108713476Y-99872456D01*
X108840096Y-99957926D01*
X108989880Y-99987964D01*
X109990640Y-99987964D01*
X110135914Y-99959778D01*
X110263596Y-99875904D01*
X110349066Y-99749284D01*
X110379104Y-99599500D01*
X110379104Y-100019547D01*
X110295295Y-100054177D01*
X110087905Y-100261205D01*
X109975528Y-100531838D01*
X109975272Y-100824876D01*
X110087177Y-101095705D01*
X110213823Y-101222573D01*
X110197044Y-101233596D01*
X110111574Y-101360216D01*
X110081536Y-101510000D01*
X110081536Y-105808191D01*
X105609819Y-104913847D01*
X107252804Y-100947330D01*
X107282357Y-100802328D01*
X107253730Y-100652268D01*
X107169456Y-100524849D01*
X107042569Y-100439777D01*
X106453690Y-100195854D01*
X106453690Y-93450740D01*
X106453690Y-93198121D01*
X106453690Y-92709750D01*
X106453690Y-92138250D01*
X106453690Y-91649879D01*
X106453690Y-91397260D01*
X106357017Y-91163871D01*
X106178388Y-90985243D01*
X105944999Y-90888570D01*
X105305610Y-90888570D01*
X105146860Y-91047320D01*
X105146860Y-92297000D01*
X106294940Y-92297000D01*
X106453690Y-92138250D01*
X106453690Y-92709750D01*
X106294940Y-92551000D01*
X105146860Y-92551000D01*
X105146860Y-93800680D01*
X105305610Y-93959430D01*
X105944999Y-93959430D01*
X106178388Y-93862757D01*
X106357017Y-93684129D01*
X106453690Y-93450740D01*
X106453690Y-100195854D01*
X105656750Y-99865751D01*
X105511748Y-99836198D01*
X105361687Y-99864825D01*
X105234269Y-99949099D01*
X105149197Y-100075986D01*
X103494976Y-104069629D01*
X103252370Y-103967891D01*
X104906150Y-99975314D01*
X104935703Y-99830312D01*
X104907076Y-99680252D01*
X104822802Y-99552833D01*
X104695915Y-99467761D01*
X104482283Y-99379271D01*
X104489001Y-99345499D01*
X104489002Y-99345499D01*
X104489001Y-99345493D01*
X104489001Y-99212051D01*
X104651705Y-99144823D01*
X104859095Y-98937795D01*
X104971472Y-98667162D01*
X104971728Y-98374124D01*
X104892860Y-98183250D01*
X104892860Y-93800680D01*
X104892860Y-92551000D01*
X104892860Y-92297000D01*
X104892860Y-91047320D01*
X104734110Y-90888570D01*
X104094721Y-90888570D01*
X103861332Y-90985243D01*
X103682703Y-91163871D01*
X103586030Y-91397260D01*
X103586030Y-91649879D01*
X103586030Y-92138250D01*
X103744780Y-92297000D01*
X104892860Y-92297000D01*
X104892860Y-92551000D01*
X103744780Y-92551000D01*
X103586030Y-92709750D01*
X103586030Y-93198121D01*
X103586030Y-93450740D01*
X103682703Y-93684129D01*
X103861332Y-93862757D01*
X104094721Y-93959430D01*
X104734110Y-93959430D01*
X104892860Y-93800680D01*
X104892860Y-98183250D01*
X104859823Y-98103295D01*
X104652795Y-97895905D01*
X104382162Y-97783528D01*
X104089124Y-97783272D01*
X103818295Y-97895177D01*
X103610905Y-98102205D01*
X103498528Y-98372838D01*
X103498455Y-98455736D01*
X103389504Y-98618795D01*
X103382286Y-98655081D01*
X103367434Y-98729745D01*
X103367434Y-93324430D01*
X103367434Y-91523570D01*
X103339248Y-91378296D01*
X103255374Y-91250614D01*
X103128754Y-91165144D01*
X102978970Y-91135106D01*
X102751640Y-91135106D01*
X102751640Y-90414464D01*
X102906000Y-90414464D01*
X103051274Y-90386278D01*
X103178956Y-90302404D01*
X103264426Y-90175784D01*
X103294464Y-90026000D01*
X103294464Y-88726000D01*
X103266278Y-88580726D01*
X103182404Y-88453044D01*
X103055784Y-88367574D01*
X102906000Y-88337536D01*
X101406000Y-88337536D01*
X101260726Y-88365722D01*
X101133044Y-88449596D01*
X101047574Y-88576216D01*
X101017536Y-88726000D01*
X101017536Y-90026000D01*
X101045722Y-90171274D01*
X101129596Y-90298956D01*
X101256216Y-90384426D01*
X101406000Y-90414464D01*
X101608640Y-90414464D01*
X101608640Y-91135106D01*
X101381310Y-91135106D01*
X101236036Y-91163292D01*
X101108354Y-91247166D01*
X101022884Y-91373786D01*
X100992846Y-91523570D01*
X100992846Y-93324430D01*
X101021032Y-93469704D01*
X101104906Y-93597386D01*
X101231526Y-93682856D01*
X101381310Y-93712894D01*
X102978970Y-93712894D01*
X103124244Y-93684708D01*
X103251926Y-93600834D01*
X103337396Y-93474214D01*
X103367434Y-93324430D01*
X103367434Y-98729745D01*
X103346000Y-98837499D01*
X103346001Y-98837504D01*
X103346001Y-98908607D01*
X103310096Y-98893735D01*
X103165094Y-98864182D01*
X103015033Y-98892809D01*
X102887615Y-98977083D01*
X102802543Y-99103970D01*
X102372289Y-100142694D01*
X102372288Y-100142696D01*
X102369641Y-100146658D01*
X102368711Y-100151332D01*
X102368711Y-100151333D01*
X101179550Y-103022222D01*
X97380427Y-100525655D01*
X100404459Y-97501624D01*
X100487252Y-97378969D01*
X100518230Y-97229376D01*
X100489132Y-97079406D01*
X100404459Y-96952252D01*
X99343799Y-95891592D01*
X99221144Y-95808799D01*
X99071551Y-95777821D01*
X98921581Y-95806919D01*
X98794427Y-95891592D01*
X95718312Y-98967706D01*
X95532293Y-98781687D01*
X98608408Y-95705573D01*
X98691201Y-95582918D01*
X98722179Y-95433325D01*
X98693081Y-95283355D01*
X98608408Y-95156201D01*
X98425749Y-94973542D01*
X98456500Y-94818948D01*
X98456501Y-94818948D01*
X98456500Y-94818942D01*
X98456500Y-94164296D01*
X98509095Y-94111793D01*
X98621472Y-93841160D01*
X98621728Y-93548122D01*
X98509823Y-93277293D01*
X98302795Y-93069903D01*
X98032162Y-92957526D01*
X97739124Y-92957270D01*
X97468295Y-93069175D01*
X97260905Y-93276203D01*
X97148528Y-93546836D01*
X97148272Y-93839874D01*
X97211993Y-93994091D01*
X97125530Y-94010868D01*
X96998376Y-94095541D01*
X93970724Y-97123192D01*
X91415680Y-93346171D01*
X95396030Y-91697457D01*
X95519459Y-91615822D01*
X95605325Y-91489471D01*
X95635833Y-91339782D01*
X95606265Y-91189904D01*
X95032239Y-89804085D01*
X94950604Y-89680656D01*
X94824253Y-89594790D01*
X94674564Y-89564282D01*
X94524686Y-89593850D01*
X90486731Y-91266424D01*
X90384994Y-91023819D01*
X94424014Y-89350803D01*
X94547443Y-89269168D01*
X94633309Y-89142817D01*
X94663817Y-88993128D01*
X94634249Y-88843250D01*
X94528434Y-88587790D01*
X94542609Y-88573615D01*
X94542613Y-88573613D01*
X94542613Y-88573612D01*
X94625390Y-88449727D01*
X94666498Y-88388205D01*
X94666499Y-88388204D01*
X94683875Y-88300846D01*
X94872705Y-88222823D01*
X95080095Y-88015795D01*
X95192472Y-87745162D01*
X95192728Y-87452124D01*
X95080823Y-87181295D01*
X94873795Y-86973905D01*
X94603162Y-86861528D01*
X94310124Y-86861272D01*
X94039295Y-86973177D01*
X93831905Y-87180205D01*
X93807484Y-87239015D01*
X93702548Y-87217628D01*
X93552670Y-87247196D01*
X89564158Y-88899291D01*
X88689851Y-84418464D01*
X92990000Y-84418464D01*
X93135274Y-84390278D01*
X93262956Y-84306404D01*
X93348426Y-84179784D01*
X93378464Y-84030000D01*
X93378464Y-82555336D01*
X93510000Y-82581501D01*
X93510000Y-82581500D01*
X93510005Y-82581500D01*
X93531534Y-82581500D01*
X93551813Y-82601814D01*
X93808448Y-82708378D01*
X94086329Y-82708621D01*
X94343149Y-82602504D01*
X94539812Y-82406185D01*
X94646376Y-82149550D01*
X94646498Y-82010009D01*
X94646500Y-82010000D01*
X94646498Y-82009990D01*
X94646619Y-81871669D01*
X94540502Y-81614849D01*
X94344183Y-81418186D01*
X94087548Y-81311622D01*
X93809667Y-81311379D01*
X93675174Y-81366950D01*
X93378464Y-81070240D01*
X93378464Y-79990000D01*
X93350278Y-79844726D01*
X93266404Y-79717044D01*
X93139784Y-79631574D01*
X92990000Y-79601536D01*
X88691808Y-79601536D01*
X89586151Y-75129818D01*
X93552670Y-76772804D01*
X93697672Y-76802357D01*
X93847732Y-76773730D01*
X93975151Y-76689456D01*
X94060223Y-76562569D01*
X94634249Y-75176750D01*
X94663802Y-75031748D01*
X94635175Y-74881687D01*
X94550901Y-74754269D01*
X94424014Y-74669197D01*
X90430370Y-73014975D01*
X90532107Y-72772370D01*
X94524686Y-74426150D01*
X94669688Y-74455703D01*
X94819748Y-74427076D01*
X94947167Y-74342802D01*
X95018373Y-74236596D01*
X95067885Y-74286108D01*
X95067888Y-74286112D01*
X95253296Y-74409997D01*
X95360577Y-74431336D01*
X95435205Y-74506095D01*
X95705838Y-74618472D01*
X95998876Y-74618728D01*
X96269705Y-74506823D01*
X96477095Y-74299795D01*
X96589472Y-74029162D01*
X96589728Y-73736124D01*
X96477823Y-73465295D01*
X96270795Y-73257905D01*
X96000162Y-73145528D01*
X95707124Y-73145272D01*
X95591337Y-73193114D01*
X95495567Y-73097343D01*
X95606265Y-72830096D01*
X95635818Y-72685094D01*
X95607191Y-72535033D01*
X95522917Y-72407615D01*
X95396030Y-72322543D01*
X91477777Y-70699550D01*
X93974343Y-66900426D01*
X96998376Y-69924459D01*
X97121031Y-70007252D01*
X97270624Y-70038230D01*
X97420594Y-70009132D01*
X97547748Y-69924459D01*
X98608408Y-68863799D01*
X98691201Y-68741144D01*
X98722179Y-68591551D01*
X98693081Y-68441581D01*
X98608408Y-68314427D01*
X95532292Y-65238311D01*
X95718311Y-65052292D01*
X98794427Y-68128408D01*
X98917082Y-68211201D01*
X99066675Y-68242179D01*
X99124381Y-68230982D01*
X99165173Y-68329705D01*
X99372201Y-68537095D01*
X99642834Y-68649472D01*
X99935872Y-68649728D01*
X100182070Y-68548000D01*
X101473000Y-68548000D01*
X101473000Y-67398750D01*
X101314250Y-67240000D01*
X100473691Y-67240000D01*
X100319693Y-67303788D01*
X100317993Y-67295241D01*
X100317993Y-67295240D01*
X100261506Y-67210700D01*
X100404459Y-67067748D01*
X100487252Y-66945093D01*
X100518230Y-66795500D01*
X100489132Y-66645530D01*
X100404459Y-66518376D01*
X97376806Y-63490723D01*
X101153828Y-60935679D01*
X102802543Y-64916030D01*
X102884178Y-65039459D01*
X103010529Y-65125325D01*
X103160218Y-65155833D01*
X103310096Y-65126265D01*
X103752442Y-64943038D01*
X103752272Y-65137876D01*
X103864177Y-65408705D01*
X104071205Y-65616095D01*
X104341838Y-65728472D01*
X104634876Y-65728728D01*
X104905705Y-65616823D01*
X105113095Y-65409795D01*
X105225472Y-65139162D01*
X105225537Y-65063686D01*
X105648400Y-64640822D01*
X105648404Y-64640820D01*
X105648404Y-64640819D01*
X105772289Y-64455412D01*
X105772289Y-64455411D01*
X105779506Y-64419125D01*
X105815792Y-64236708D01*
X105815793Y-64236708D01*
X105815792Y-64236702D01*
X105815792Y-64088371D01*
X107042569Y-63580223D01*
X107165998Y-63498588D01*
X107251864Y-63372237D01*
X107282372Y-63222548D01*
X107252804Y-63072670D01*
X105609818Y-59106151D01*
X110081536Y-58211808D01*
X110081536Y-62510000D01*
X110109722Y-62655274D01*
X110193596Y-62782956D01*
X110320216Y-62868426D01*
X110470000Y-62898464D01*
X111970000Y-62898464D01*
X112115274Y-62870278D01*
X112242956Y-62786404D01*
X112328426Y-62659784D01*
X112358464Y-62510000D01*
X112358464Y-58134000D01*
X112621536Y-58134000D01*
X112621536Y-62510000D01*
X112649722Y-62655274D01*
X112733596Y-62782956D01*
X112860216Y-62868426D01*
X113010000Y-62898464D01*
X113021633Y-62898464D01*
X112997039Y-62935271D01*
X112881905Y-63050205D01*
X112769528Y-63320838D01*
X112769272Y-63613876D01*
X112881177Y-63884705D01*
X113088205Y-64092095D01*
X113358838Y-64204472D01*
X113651876Y-64204728D01*
X113922705Y-64092823D01*
X114130095Y-63885795D01*
X114242472Y-63615162D01*
X114242728Y-63322124D01*
X114223408Y-63275367D01*
X114287997Y-63178704D01*
X114287997Y-63178703D01*
X114331500Y-62960000D01*
X114331500Y-62898464D01*
X114510000Y-62898464D01*
X114655274Y-62870278D01*
X114782956Y-62786404D01*
X114868426Y-62659784D01*
X114898464Y-62510000D01*
X114898464Y-58211808D01*
X119370181Y-59106151D01*
X117727196Y-63072670D01*
X117697643Y-63217672D01*
X117726270Y-63367732D01*
X117810544Y-63495151D01*
X117937431Y-63580223D01*
X119323250Y-64154249D01*
X119370130Y-64163803D01*
X119185295Y-64240177D01*
X118977905Y-64447205D01*
X118865528Y-64717838D01*
X118865272Y-65010876D01*
X118977177Y-65281705D01*
X119184205Y-65489095D01*
X119454838Y-65601472D01*
X119747876Y-65601728D01*
X120018705Y-65489823D01*
X120077373Y-65431257D01*
X120077374Y-65431256D01*
X120233429Y-65400214D01*
X120269715Y-65392997D01*
X120269716Y-65392997D01*
X120455124Y-65269112D01*
X120541735Y-65182500D01*
X120744994Y-65182500D01*
X120745000Y-65182501D01*
X120745000Y-65182500D01*
X120927417Y-65146214D01*
X120963703Y-65138997D01*
X120963704Y-65138997D01*
X121149112Y-65015112D01*
X121223051Y-64941172D01*
X121669904Y-65126265D01*
X121814906Y-65155818D01*
X121964967Y-65127191D01*
X122092385Y-65042917D01*
X122177457Y-64916030D01*
X123800449Y-60997777D01*
X127599573Y-63494343D01*
X124575541Y-66518376D01*
X124492748Y-66641031D01*
X124461770Y-66790624D01*
X124490868Y-66940594D01*
X124575541Y-67067748D01*
X124811083Y-67303290D01*
X124790124Y-67303272D01*
X124519295Y-67415177D01*
X124311905Y-67622205D01*
X124199528Y-67892838D01*
X124199306Y-68146083D01*
X123815464Y-67762240D01*
X123815464Y-66321000D01*
X123787278Y-66175726D01*
X123703404Y-66048044D01*
X123576784Y-65962574D01*
X123427000Y-65932536D01*
X122127000Y-65932536D01*
X121981726Y-65960722D01*
X121854044Y-66044596D01*
X121768574Y-66171216D01*
X121738536Y-66321000D01*
X121738536Y-66499500D01*
X121482464Y-66499500D01*
X121482464Y-66399000D01*
X121454278Y-66253726D01*
X121370404Y-66126044D01*
X121243784Y-66040574D01*
X121094000Y-66010536D01*
X119594000Y-66010536D01*
X119448726Y-66038722D01*
X119321044Y-66122596D01*
X119235574Y-66249216D01*
X119229000Y-66281997D01*
X119229000Y-66272690D01*
X119132327Y-66039301D01*
X118953698Y-65860673D01*
X118720309Y-65764000D01*
X118129750Y-65764000D01*
X117971000Y-65922750D01*
X117971000Y-66897000D01*
X117991000Y-66897000D01*
X117991000Y-67151000D01*
X117971000Y-67151000D01*
X117971000Y-68125250D01*
X118129750Y-68284000D01*
X118720309Y-68284000D01*
X118953698Y-68187327D01*
X119132327Y-68008699D01*
X119229000Y-67775310D01*
X119229000Y-67769936D01*
X119233722Y-67794274D01*
X119317596Y-67921956D01*
X119444216Y-68007426D01*
X119594000Y-68037464D01*
X121094000Y-68037464D01*
X121239274Y-68009278D01*
X121366956Y-67925404D01*
X121452426Y-67798784D01*
X121482464Y-67649000D01*
X121482464Y-67642500D01*
X121738536Y-67642500D01*
X121738536Y-67821000D01*
X121766722Y-67966274D01*
X121850596Y-68093956D01*
X121977216Y-68179426D01*
X122127000Y-68209464D01*
X122646240Y-68209464D01*
X123069312Y-68632536D01*
X122127000Y-68632536D01*
X121981726Y-68660722D01*
X121854044Y-68744596D01*
X121768574Y-68871216D01*
X121738536Y-69021000D01*
X121738536Y-69199500D01*
X121482464Y-69199500D01*
X121482464Y-69066000D01*
X121454278Y-68920726D01*
X121370404Y-68793044D01*
X121243784Y-68707574D01*
X121094000Y-68677536D01*
X119594000Y-68677536D01*
X119448726Y-68705722D01*
X119321044Y-68789596D01*
X119235574Y-68916216D01*
X119229000Y-68948997D01*
X119229000Y-68939690D01*
X119132327Y-68706301D01*
X118953698Y-68527673D01*
X118720309Y-68431000D01*
X118129750Y-68431000D01*
X117971000Y-68589750D01*
X117971000Y-69564000D01*
X117991000Y-69564000D01*
X117991000Y-69818000D01*
X117971000Y-69818000D01*
X117971000Y-70792250D01*
X118129750Y-70951000D01*
X118395500Y-70951000D01*
X118395500Y-71506701D01*
X118342905Y-71559205D01*
X118230528Y-71829838D01*
X118230272Y-72122876D01*
X118342177Y-72393705D01*
X118549205Y-72601095D01*
X118819838Y-72713472D01*
X118890557Y-72713533D01*
X118804295Y-72749177D01*
X118596905Y-72956205D01*
X118484528Y-73226838D01*
X118484272Y-73519876D01*
X118596177Y-73790705D01*
X118803205Y-73998095D01*
X119073838Y-74110472D01*
X119366876Y-74110728D01*
X119637705Y-73998823D01*
X119845095Y-73791795D01*
X119957472Y-73521162D01*
X119957473Y-73519750D01*
X120334759Y-73142464D01*
X121415000Y-73142464D01*
X121560274Y-73114278D01*
X121687956Y-73030404D01*
X121773426Y-72903784D01*
X121803464Y-72754000D01*
X121803464Y-71454000D01*
X121775278Y-71308726D01*
X121691404Y-71181044D01*
X121564784Y-71095574D01*
X121415000Y-71065536D01*
X119915000Y-71065536D01*
X119769726Y-71093722D01*
X119642044Y-71177596D01*
X119556574Y-71304216D01*
X119538500Y-71394341D01*
X119538500Y-71179723D01*
X120013759Y-70704464D01*
X121094000Y-70704464D01*
X121239274Y-70676278D01*
X121366956Y-70592404D01*
X121452426Y-70465784D01*
X121477149Y-70342500D01*
X121738536Y-70342500D01*
X121738536Y-70521000D01*
X121766722Y-70666274D01*
X121850596Y-70793956D01*
X121977216Y-70879426D01*
X122127000Y-70909464D01*
X123427000Y-70909464D01*
X123572274Y-70881278D01*
X123699956Y-70797404D01*
X123785426Y-70670784D01*
X123815464Y-70521000D01*
X123815464Y-69378687D01*
X124491500Y-70054723D01*
X124491500Y-71392336D01*
X124475278Y-71308726D01*
X124391404Y-71181044D01*
X124264784Y-71095574D01*
X124115000Y-71065536D01*
X122615000Y-71065536D01*
X122469726Y-71093722D01*
X122342044Y-71177596D01*
X122256574Y-71304216D01*
X122226536Y-71454000D01*
X122226536Y-72754000D01*
X122254722Y-72899274D01*
X122338596Y-73026956D01*
X122465216Y-73112426D01*
X122615000Y-73142464D01*
X122793500Y-73142464D01*
X122793500Y-73199994D01*
X122793499Y-73200000D01*
X122829785Y-73382417D01*
X122837003Y-73418704D01*
X122960888Y-73604112D01*
X123515664Y-74158887D01*
X123428751Y-74368199D01*
X123428271Y-74917392D01*
X123637995Y-75424963D01*
X124025994Y-75813640D01*
X124533199Y-76024249D01*
X125082392Y-76024729D01*
X125589963Y-75815005D01*
X125978640Y-75427006D01*
X126189249Y-74919801D01*
X126189729Y-74370608D01*
X125980005Y-73863037D01*
X125592006Y-73474360D01*
X125084801Y-73263751D01*
X124535608Y-73263271D01*
X124323949Y-73350726D01*
X124115576Y-73142352D01*
X124260274Y-73114278D01*
X124387956Y-73030404D01*
X124473426Y-72903784D01*
X124503464Y-72754000D01*
X124503464Y-72164150D01*
X124527785Y-72286417D01*
X124535003Y-72322704D01*
X124658888Y-72508112D01*
X126309664Y-74158887D01*
X126222751Y-74368199D01*
X126222271Y-74917392D01*
X126431995Y-75424963D01*
X126819994Y-75813640D01*
X127327199Y-76024249D01*
X127876392Y-76024729D01*
X128383963Y-75815005D01*
X128772640Y-75427006D01*
X128983249Y-74919801D01*
X128983729Y-74370608D01*
X128774005Y-73863037D01*
X128386006Y-73474360D01*
X127878801Y-73263751D01*
X127329608Y-73263271D01*
X127117949Y-73350726D01*
X125634500Y-71867276D01*
X125634500Y-69818005D01*
X125634500Y-69818000D01*
X125634501Y-69818000D01*
X125598214Y-69635582D01*
X125590997Y-69599297D01*
X125590997Y-69599296D01*
X125467112Y-69413888D01*
X125467108Y-69413885D01*
X124829731Y-68776507D01*
X124864314Y-68776537D01*
X125420885Y-69333108D01*
X125420888Y-69333112D01*
X125420889Y-69333112D01*
X125606296Y-69456997D01*
X125606297Y-69456997D01*
X125642582Y-69464214D01*
X125825000Y-69500501D01*
X125825000Y-69500500D01*
X125825005Y-69500500D01*
X126967994Y-69500500D01*
X126968000Y-69500501D01*
X126968000Y-69500500D01*
X127001608Y-69493815D01*
X127432252Y-69924459D01*
X127554907Y-70007252D01*
X127704500Y-70038230D01*
X127854470Y-70009132D01*
X127981624Y-69924459D01*
X131009275Y-66896807D01*
X133564319Y-70673828D01*
X129583970Y-72322543D01*
X129460541Y-72404178D01*
X129414358Y-72472135D01*
X128593663Y-71651439D01*
X128593728Y-71577124D01*
X128481823Y-71306295D01*
X128274795Y-71098905D01*
X128004162Y-70986528D01*
X127711124Y-70986272D01*
X127440295Y-71098177D01*
X127232905Y-71305205D01*
X127120528Y-71575838D01*
X127120272Y-71868876D01*
X127232177Y-72139705D01*
X127439205Y-72347095D01*
X127709838Y-72459472D01*
X127785314Y-72459537D01*
X128936500Y-73610723D01*
X128936500Y-74135994D01*
X128936499Y-74136000D01*
X128972785Y-74318417D01*
X128980003Y-74354704D01*
X129103888Y-74540112D01*
X129732177Y-75168400D01*
X129732180Y-75168404D01*
X129917588Y-75292289D01*
X129917589Y-75292289D01*
X129953874Y-75299506D01*
X130136292Y-75335793D01*
X130136292Y-75335792D01*
X130136297Y-75335792D01*
X130411628Y-75335792D01*
X130919777Y-76562569D01*
X131001412Y-76685998D01*
X131127763Y-76771864D01*
X131277452Y-76802372D01*
X131427330Y-76772804D01*
X135415840Y-75120709D01*
X136290148Y-79601536D01*
X136290148Y-79601536D01*
G37*
X136290148Y-79601536D02*
X131990000Y-79601536D01*
X131844726Y-79629722D01*
X131717044Y-79713596D01*
X131631574Y-79840216D01*
X131601536Y-79990000D01*
X131601536Y-81487480D01*
X131498482Y-81466981D01*
X131498476Y-81466982D01*
X131067463Y-81466982D01*
X131047185Y-81446668D01*
X130790550Y-81340104D01*
X130512669Y-81339861D01*
X130255849Y-81445978D01*
X130059186Y-81642297D01*
X129952622Y-81898932D01*
X129952379Y-82176813D01*
X130058496Y-82433633D01*
X130254815Y-82630296D01*
X130511450Y-82736860D01*
X130789331Y-82737103D01*
X131046151Y-82630986D01*
X131067191Y-82609982D01*
X131261758Y-82609982D01*
X131601536Y-82949759D01*
X131601536Y-84030000D01*
X131629722Y-84175274D01*
X131713596Y-84302956D01*
X131840216Y-84388426D01*
X131990000Y-84418464D01*
X136280337Y-84418464D01*
X135306667Y-88854069D01*
X131427330Y-87247196D01*
X131282328Y-87217643D01*
X131132268Y-87246270D01*
X131004849Y-87330544D01*
X130919777Y-87457431D01*
X130756340Y-87852000D01*
X130726464Y-87852000D01*
X130726464Y-86597000D01*
X130726464Y-85297000D01*
X130698278Y-85151726D01*
X130614404Y-85024044D01*
X130487784Y-84938574D01*
X130338000Y-84908536D01*
X130235807Y-84908536D01*
X130119112Y-84733888D01*
X130119108Y-84733885D01*
X129990663Y-84605439D01*
X129990728Y-84531124D01*
X129878823Y-84260295D01*
X129698501Y-84079657D01*
X129698501Y-79216000D01*
X129698500Y-79215994D01*
X129698500Y-77311005D01*
X129698500Y-77311000D01*
X129698501Y-77311000D01*
X129654998Y-77092297D01*
X129654997Y-77092296D01*
X129613889Y-77030774D01*
X129531112Y-76906889D01*
X129531112Y-76906888D01*
X129531108Y-76906885D01*
X128896112Y-76271888D01*
X128710704Y-76148003D01*
X128674417Y-76140785D01*
X128492000Y-76104499D01*
X128491994Y-76104500D01*
X124009298Y-76104500D01*
X123956795Y-76051905D01*
X123686162Y-75939528D01*
X123393124Y-75939272D01*
X123122295Y-76051177D01*
X122914905Y-76258205D01*
X122802528Y-76528838D01*
X122802272Y-76821876D01*
X122914177Y-77092705D01*
X123121205Y-77300095D01*
X123391838Y-77412472D01*
X123684876Y-77412728D01*
X123694931Y-77408573D01*
X123683936Y-77463400D01*
X123683936Y-77756983D01*
X123472697Y-77799002D01*
X123411174Y-77840110D01*
X123287288Y-77922888D01*
X123287285Y-77922891D01*
X122626888Y-78583288D01*
X122503003Y-78768696D01*
X122495785Y-78804982D01*
X122459499Y-78987400D01*
X122459500Y-78987405D01*
X122459500Y-86646266D01*
X119365371Y-89740394D01*
X119336669Y-89740369D01*
X119079849Y-89846486D01*
X118883186Y-90042805D01*
X118776622Y-90299440D01*
X118776379Y-90577321D01*
X118882496Y-90834141D01*
X119078815Y-91030804D01*
X119335450Y-91137368D01*
X119613331Y-91137611D01*
X119870151Y-91031494D01*
X120066814Y-90835175D01*
X120173378Y-90578540D01*
X120173403Y-90548809D01*
X122471181Y-88251031D01*
X122580150Y-88360000D01*
X123793000Y-88360000D01*
X123793000Y-87147150D01*
X123634250Y-86988400D01*
X123581532Y-86988400D01*
X123602500Y-86882990D01*
X123602500Y-79224123D01*
X123683936Y-79142687D01*
X123683936Y-79190600D01*
X123712122Y-79335874D01*
X123795996Y-79463556D01*
X123922616Y-79549026D01*
X124072400Y-79579064D01*
X125799600Y-79579064D01*
X125944874Y-79550878D01*
X126072556Y-79467004D01*
X126158026Y-79340384D01*
X126188064Y-79190600D01*
X126188064Y-77463400D01*
X126159878Y-77318126D01*
X126113483Y-77247500D01*
X126870027Y-77247500D01*
X126571552Y-77446935D01*
X126301757Y-77850712D01*
X126207017Y-78327000D01*
X126301757Y-78803288D01*
X126571552Y-79207065D01*
X126975329Y-79476860D01*
X127451617Y-79571600D01*
X127500383Y-79571600D01*
X127976671Y-79476860D01*
X128221518Y-79313258D01*
X127844022Y-79690754D01*
X127500383Y-79622400D01*
X127451617Y-79622400D01*
X126975329Y-79717140D01*
X126571552Y-79986935D01*
X126301757Y-80390712D01*
X126207017Y-80867000D01*
X126301757Y-81343288D01*
X126571552Y-81747065D01*
X126975329Y-82016860D01*
X126977661Y-82017323D01*
X126587510Y-82200179D01*
X126204983Y-82619266D01*
X126204983Y-80867000D01*
X126110243Y-80390712D01*
X125840448Y-79986935D01*
X125436671Y-79717140D01*
X124960383Y-79622400D01*
X124911617Y-79622400D01*
X124435329Y-79717140D01*
X124031552Y-79986935D01*
X123761757Y-80390712D01*
X123667017Y-80867000D01*
X123761757Y-81343288D01*
X124031552Y-81747065D01*
X124435329Y-82016860D01*
X124911617Y-82111600D01*
X124960383Y-82111600D01*
X125436671Y-82016860D01*
X125840448Y-81747065D01*
X126110243Y-81343288D01*
X126204983Y-80867000D01*
X126204983Y-82619266D01*
X126193312Y-82632053D01*
X126085159Y-82893171D01*
X125840448Y-82526935D01*
X125436671Y-82257140D01*
X124960383Y-82162400D01*
X124911617Y-82162400D01*
X124435329Y-82257140D01*
X124031552Y-82526935D01*
X123761757Y-82930712D01*
X123667017Y-83407000D01*
X123761757Y-83883288D01*
X124031552Y-84287065D01*
X124435329Y-84556860D01*
X124911617Y-84651600D01*
X124960383Y-84651600D01*
X125436671Y-84556860D01*
X125840448Y-84287065D01*
X126085159Y-83920828D01*
X126193312Y-84181947D01*
X126587510Y-84613821D01*
X127116973Y-84861968D01*
X127349000Y-84741469D01*
X127349000Y-83534000D01*
X127329000Y-83534000D01*
X127329000Y-83280000D01*
X127349000Y-83280000D01*
X127349000Y-83260000D01*
X127603000Y-83260000D01*
X127603000Y-83280000D01*
X128809817Y-83280000D01*
X128930958Y-83047974D01*
X128758688Y-82632053D01*
X128364490Y-82200179D01*
X127974338Y-82017323D01*
X127976671Y-82016860D01*
X128380448Y-81747065D01*
X128650243Y-81343288D01*
X128744983Y-80867000D01*
X128668537Y-80482685D01*
X129531108Y-79620114D01*
X129531112Y-79620112D01*
X129531112Y-79620111D01*
X129613889Y-79496226D01*
X129654997Y-79434704D01*
X129654998Y-79434703D01*
X129698500Y-79216000D01*
X129698501Y-79216000D01*
X129698501Y-84079657D01*
X129671795Y-84052905D01*
X129401162Y-83940528D01*
X129108124Y-83940272D01*
X128837295Y-84052177D01*
X128794914Y-84094483D01*
X128930958Y-83766026D01*
X128809817Y-83534000D01*
X127603000Y-83534000D01*
X127603000Y-84741469D01*
X127835027Y-84861968D01*
X128364490Y-84613821D01*
X128581276Y-84376314D01*
X128517528Y-84529838D01*
X128517272Y-84822876D01*
X128591726Y-85003068D01*
X128565044Y-85020596D01*
X128479574Y-85147216D01*
X128449536Y-85297000D01*
X128449536Y-86597000D01*
X128477722Y-86742274D01*
X128561596Y-86869956D01*
X128688216Y-86955426D01*
X128838000Y-86985464D01*
X130338000Y-86985464D01*
X130483274Y-86957278D01*
X130610956Y-86873404D01*
X130696426Y-86746784D01*
X130726464Y-86597000D01*
X130726464Y-87852000D01*
X127586500Y-87852000D01*
X127586500Y-86985464D01*
X127638000Y-86985464D01*
X127783274Y-86957278D01*
X127910956Y-86873404D01*
X127996426Y-86746784D01*
X128026464Y-86597000D01*
X128026464Y-85297000D01*
X127998278Y-85151726D01*
X127914404Y-85024044D01*
X127787784Y-84938574D01*
X127638000Y-84908536D01*
X126138000Y-84908536D01*
X125992726Y-84936722D01*
X125865044Y-85020596D01*
X125779574Y-85147216D01*
X125749536Y-85297000D01*
X125749536Y-86597000D01*
X125777722Y-86742274D01*
X125861596Y-86869956D01*
X125988216Y-86955426D01*
X126138000Y-86985464D01*
X126443500Y-86985464D01*
X126443500Y-87242400D01*
X126435617Y-87242400D01*
X125959329Y-87337140D01*
X125555552Y-87606935D01*
X125418600Y-87811898D01*
X125418600Y-87749709D01*
X125418600Y-87497090D01*
X125321927Y-87263701D01*
X125143298Y-87085073D01*
X124909909Y-86988400D01*
X124205750Y-86988400D01*
X124047000Y-87147150D01*
X124047000Y-88360000D01*
X124067000Y-88360000D01*
X124067000Y-88614000D01*
X124047000Y-88614000D01*
X124047000Y-89826850D01*
X124205750Y-89985600D01*
X124909909Y-89985600D01*
X125143298Y-89888927D01*
X125321927Y-89710299D01*
X125418600Y-89476910D01*
X125418600Y-89224291D01*
X125418600Y-89162101D01*
X125555552Y-89367065D01*
X125888500Y-89589533D01*
X125888500Y-90282276D01*
X125541276Y-90629500D01*
X125466464Y-90629500D01*
X125466464Y-90451000D01*
X125438278Y-90305726D01*
X125354404Y-90178044D01*
X125227784Y-90092574D01*
X125078000Y-90062536D01*
X123778000Y-90062536D01*
X123632726Y-90090722D01*
X123505044Y-90174596D01*
X123419574Y-90301216D01*
X123418824Y-90304953D01*
X123330327Y-90091302D01*
X123224625Y-89985600D01*
X123634250Y-89985600D01*
X123793000Y-89826850D01*
X123793000Y-88614000D01*
X122580150Y-88614000D01*
X122421400Y-88772750D01*
X122421400Y-89224291D01*
X122421400Y-89476910D01*
X122518073Y-89710299D01*
X122623774Y-89816000D01*
X122427750Y-89816000D01*
X122269000Y-89974750D01*
X122269000Y-91074000D01*
X122289000Y-91074000D01*
X122289000Y-91328000D01*
X122269000Y-91328000D01*
X122269000Y-92427250D01*
X122427750Y-92586000D01*
X122665691Y-92586000D01*
X122918310Y-92586000D01*
X123151699Y-92489327D01*
X123330327Y-92310698D01*
X123418594Y-92097601D01*
X123501596Y-92223956D01*
X123628216Y-92309426D01*
X123778000Y-92339464D01*
X125078000Y-92339464D01*
X125223274Y-92311278D01*
X125350956Y-92227404D01*
X125436426Y-92100784D01*
X125466464Y-91951000D01*
X125466464Y-91772500D01*
X125777994Y-91772500D01*
X125778000Y-91772501D01*
X125778000Y-91772500D01*
X125960417Y-91736214D01*
X125996703Y-91728997D01*
X125996704Y-91728997D01*
X126182112Y-91605112D01*
X126864108Y-90923114D01*
X126864112Y-90923112D01*
X126864112Y-90923111D01*
X126946889Y-90799226D01*
X126987997Y-90737704D01*
X126987998Y-90737703D01*
X127031500Y-90519000D01*
X127031501Y-90519000D01*
X127031500Y-90518994D01*
X127031500Y-89589533D01*
X127364448Y-89367065D01*
X127528195Y-89122000D01*
X130341712Y-89122000D01*
X130344825Y-89138313D01*
X130429099Y-89265731D01*
X130555986Y-89350803D01*
X134516324Y-90991228D01*
X134418615Y-91235502D01*
X130455314Y-89593850D01*
X130310312Y-89564297D01*
X130160252Y-89592924D01*
X130032833Y-89677198D01*
X129947761Y-89804085D01*
X129783146Y-90201500D01*
X129762000Y-90201500D01*
X129543296Y-90245003D01*
X129357888Y-90368888D01*
X129357885Y-90368891D01*
X128293439Y-91433336D01*
X128219124Y-91433272D01*
X127948295Y-91545177D01*
X127740905Y-91752205D01*
X127628528Y-92022838D01*
X127628272Y-92315876D01*
X127740177Y-92586705D01*
X127947205Y-92794095D01*
X128217838Y-92906472D01*
X128510876Y-92906728D01*
X128781705Y-92794823D01*
X128989095Y-92587795D01*
X129101472Y-92317162D01*
X129101537Y-92241685D01*
X129627666Y-91715556D01*
X133502222Y-93320449D01*
X131005655Y-97119572D01*
X127981624Y-94095541D01*
X127858969Y-94012748D01*
X127709376Y-93981770D01*
X127559406Y-94010868D01*
X127432252Y-94095541D01*
X126371592Y-95156201D01*
X126288799Y-95278856D01*
X126257821Y-95428449D01*
X126286919Y-95578419D01*
X126371592Y-95705573D01*
X129447706Y-98781687D01*
X129261687Y-98967706D01*
X126185573Y-95891592D01*
X126062918Y-95808799D01*
X125913325Y-95777821D01*
X125763355Y-95806919D01*
X125636201Y-95891592D01*
X125466464Y-96061328D01*
X125466464Y-94651000D01*
X125466464Y-93151000D01*
X125438278Y-93005726D01*
X125354404Y-92878044D01*
X125227784Y-92792574D01*
X125078000Y-92762536D01*
X123778000Y-92762536D01*
X123632726Y-92790722D01*
X123505044Y-92874596D01*
X123419574Y-93001216D01*
X123389536Y-93151000D01*
X123389536Y-93329500D01*
X123180464Y-93329500D01*
X123180464Y-93151000D01*
X123152278Y-93005726D01*
X123068404Y-92878044D01*
X122941784Y-92792574D01*
X122792000Y-92762536D01*
X122015000Y-92762536D01*
X122015000Y-92427250D01*
X122015000Y-91328000D01*
X122015000Y-91074000D01*
X122015000Y-89974750D01*
X121856250Y-89816000D01*
X121618309Y-89816000D01*
X121365690Y-89816000D01*
X121132301Y-89912673D01*
X120953673Y-90091302D01*
X120857000Y-90324691D01*
X120857000Y-90915250D01*
X121015750Y-91074000D01*
X122015000Y-91074000D01*
X122015000Y-91328000D01*
X121015750Y-91328000D01*
X120857000Y-91486750D01*
X120857000Y-92077309D01*
X120953673Y-92310698D01*
X121132301Y-92489327D01*
X121365690Y-92586000D01*
X121618309Y-92586000D01*
X121856250Y-92586000D01*
X122015000Y-92427250D01*
X122015000Y-92762536D01*
X121492000Y-92762536D01*
X121346726Y-92790722D01*
X121219044Y-92874596D01*
X121133574Y-93001216D01*
X121114508Y-93096285D01*
X120165112Y-92146888D01*
X119979704Y-92023003D01*
X119943417Y-92015785D01*
X119761000Y-91979499D01*
X119760994Y-91979500D01*
X117717000Y-91979500D01*
X117717000Y-70792250D01*
X117717000Y-69818000D01*
X117717000Y-69564000D01*
X117717000Y-68589750D01*
X117717000Y-68125250D01*
X117717000Y-67151000D01*
X117717000Y-66897000D01*
X117717000Y-65922750D01*
X117558250Y-65764000D01*
X116967691Y-65764000D01*
X116734302Y-65860673D01*
X116555673Y-66039301D01*
X116459000Y-66272690D01*
X116459000Y-66525309D01*
X116459000Y-66738250D01*
X116617750Y-66897000D01*
X117717000Y-66897000D01*
X117717000Y-67151000D01*
X116617750Y-67151000D01*
X116459000Y-67309750D01*
X116459000Y-67522691D01*
X116459000Y-67775310D01*
X116555673Y-68008699D01*
X116734302Y-68187327D01*
X116967691Y-68284000D01*
X117558250Y-68284000D01*
X117717000Y-68125250D01*
X117717000Y-68589750D01*
X117558250Y-68431000D01*
X116967691Y-68431000D01*
X116734302Y-68527673D01*
X116555673Y-68706301D01*
X116459000Y-68939690D01*
X116459000Y-69192309D01*
X116459000Y-69405250D01*
X116617750Y-69564000D01*
X117717000Y-69564000D01*
X117717000Y-69818000D01*
X116617750Y-69818000D01*
X116459000Y-69976750D01*
X116459000Y-70189691D01*
X116459000Y-70442310D01*
X116555673Y-70675699D01*
X116734302Y-70854327D01*
X116967691Y-70951000D01*
X117558250Y-70951000D01*
X117717000Y-70792250D01*
X117717000Y-91979500D01*
X116378584Y-91979500D01*
X116378584Y-69246500D01*
X116378584Y-68245740D01*
X116378584Y-65548260D01*
X116378584Y-64547500D01*
X116350398Y-64402226D01*
X116266524Y-64274544D01*
X116139904Y-64189074D01*
X115990120Y-64159036D01*
X114989360Y-64159036D01*
X114844086Y-64187222D01*
X114716404Y-64271096D01*
X114630934Y-64397716D01*
X114600896Y-64547500D01*
X114600896Y-65548260D01*
X114629082Y-65693534D01*
X114712956Y-65821216D01*
X114839576Y-65906686D01*
X114989360Y-65936724D01*
X115990120Y-65936724D01*
X116135394Y-65908538D01*
X116263076Y-65824664D01*
X116348546Y-65698044D01*
X116378584Y-65548260D01*
X116378584Y-68245740D01*
X116350398Y-68100466D01*
X116266524Y-67972784D01*
X116139904Y-67887314D01*
X115990120Y-67857276D01*
X114989360Y-67857276D01*
X114844086Y-67885462D01*
X114716404Y-67969336D01*
X114630934Y-68095956D01*
X114615158Y-68174620D01*
X110767885Y-68174620D01*
X110767880Y-68174619D01*
X110625640Y-68202912D01*
X110625640Y-65674570D01*
X110625640Y-65421951D01*
X110625640Y-65333630D01*
X110625640Y-64762130D01*
X110625640Y-64673809D01*
X110625640Y-64421190D01*
X110528967Y-64187801D01*
X110350338Y-64009173D01*
X110116949Y-63912500D01*
X109776010Y-63912500D01*
X109617260Y-64071250D01*
X109617260Y-64920880D01*
X110466890Y-64920880D01*
X110625640Y-64762130D01*
X110625640Y-65333630D01*
X110466890Y-65174880D01*
X109617260Y-65174880D01*
X109617260Y-66024510D01*
X109776010Y-66183260D01*
X110116949Y-66183260D01*
X110350338Y-66086587D01*
X110528967Y-65907959D01*
X110625640Y-65674570D01*
X110625640Y-68202912D01*
X110585462Y-68210905D01*
X110549176Y-68218123D01*
X110379104Y-68331760D01*
X110379104Y-68245740D01*
X110350918Y-68100466D01*
X110267044Y-67972784D01*
X110140424Y-67887314D01*
X109990640Y-67857276D01*
X109363260Y-67857276D01*
X109363260Y-66024510D01*
X109363260Y-65174880D01*
X109363260Y-64920880D01*
X109363260Y-64071250D01*
X109204510Y-63912500D01*
X108863571Y-63912500D01*
X108630182Y-64009173D01*
X108451553Y-64187801D01*
X108354880Y-64421190D01*
X108354880Y-64673809D01*
X108354880Y-64762130D01*
X108513630Y-64920880D01*
X109363260Y-64920880D01*
X109363260Y-65174880D01*
X108513630Y-65174880D01*
X108354880Y-65333630D01*
X108354880Y-65421951D01*
X108354880Y-65674570D01*
X108451553Y-65907959D01*
X108630182Y-66086587D01*
X108863571Y-66183260D01*
X109204510Y-66183260D01*
X109363260Y-66024510D01*
X109363260Y-67857276D01*
X108989880Y-67857276D01*
X108844606Y-67885462D01*
X108716924Y-67969336D01*
X108631454Y-68095956D01*
X108601416Y-68245740D01*
X108601416Y-69246500D01*
X108629602Y-69391774D01*
X108713476Y-69519456D01*
X108840096Y-69604926D01*
X108989880Y-69634964D01*
X109070812Y-69634964D01*
X107384728Y-71321048D01*
X107384728Y-69926116D01*
X107272823Y-69655287D01*
X107065795Y-69447897D01*
X106988464Y-69415786D01*
X106988464Y-67875000D01*
X106960278Y-67729726D01*
X106876404Y-67602044D01*
X106749784Y-67516574D01*
X106600000Y-67486536D01*
X104600000Y-67486536D01*
X104454726Y-67514722D01*
X104327044Y-67598596D01*
X104241574Y-67725216D01*
X104211536Y-67875000D01*
X104211536Y-69475000D01*
X104239722Y-69620274D01*
X104323596Y-69747956D01*
X104431120Y-69820536D01*
X104100000Y-69820536D01*
X103954726Y-69848722D01*
X103827044Y-69932596D01*
X103741574Y-70059216D01*
X103735000Y-70091997D01*
X103735000Y-70082690D01*
X103638327Y-69849301D01*
X103459698Y-69670673D01*
X103235000Y-69577599D01*
X103235000Y-69348691D01*
X103235000Y-68960750D01*
X103235000Y-68389250D01*
X103235000Y-68001309D01*
X103235000Y-67748690D01*
X103138327Y-67515301D01*
X102959698Y-67336673D01*
X102726309Y-67240000D01*
X101885750Y-67240000D01*
X101727000Y-67398750D01*
X101727000Y-68548000D01*
X103076250Y-68548000D01*
X103235000Y-68389250D01*
X103235000Y-68960750D01*
X103076250Y-68802000D01*
X101727000Y-68802000D01*
X101727000Y-68822000D01*
X101473000Y-68822000D01*
X101473000Y-68802000D01*
X100123750Y-68802000D01*
X99965000Y-68960750D01*
X99965000Y-69348691D01*
X99965000Y-69601310D01*
X100061673Y-69834699D01*
X100240302Y-70013327D01*
X100473691Y-70110000D01*
X100965000Y-70110000D01*
X100965000Y-70335309D01*
X100965000Y-70548250D01*
X101123750Y-70707000D01*
X102223000Y-70707000D01*
X102223000Y-70687000D01*
X102477000Y-70687000D01*
X102477000Y-70707000D01*
X102497000Y-70707000D01*
X102497000Y-70961000D01*
X102477000Y-70961000D01*
X102477000Y-71935250D01*
X102635750Y-72094000D01*
X103226309Y-72094000D01*
X103459698Y-71997327D01*
X103638327Y-71818699D01*
X103735000Y-71585310D01*
X103735000Y-71579936D01*
X103739722Y-71604274D01*
X103823596Y-71731956D01*
X103950216Y-71817426D01*
X104100000Y-71847464D01*
X105600000Y-71847464D01*
X105745274Y-71819278D01*
X105872956Y-71735404D01*
X105958426Y-71608784D01*
X105988464Y-71459000D01*
X105988464Y-70643492D01*
X106177701Y-70643492D01*
X106230205Y-70696087D01*
X106500838Y-70808464D01*
X106793876Y-70808720D01*
X107064705Y-70696815D01*
X107272095Y-70489787D01*
X107384472Y-70219154D01*
X107384728Y-69926116D01*
X107384728Y-71321048D01*
X104719888Y-73985888D01*
X104596003Y-74171296D01*
X104588785Y-74207582D01*
X104552499Y-74390000D01*
X104552500Y-74390005D01*
X104552500Y-74771000D01*
X104552500Y-74961500D01*
X104108005Y-74961500D01*
X104108000Y-74961499D01*
X103925582Y-74997785D01*
X103889296Y-75005003D01*
X103703888Y-75128888D01*
X103655439Y-75177336D01*
X103581124Y-75177272D01*
X103310295Y-75289177D01*
X103102905Y-75496205D01*
X102990528Y-75766838D01*
X102990272Y-76059876D01*
X103102177Y-76330705D01*
X103243831Y-76472607D01*
X102223000Y-76472607D01*
X102223000Y-71935250D01*
X102223000Y-70961000D01*
X101123750Y-70961000D01*
X100965000Y-71119750D01*
X100965000Y-71332691D01*
X100965000Y-71585310D01*
X101061673Y-71818699D01*
X101240302Y-71997327D01*
X101473691Y-72094000D01*
X102064250Y-72094000D01*
X102223000Y-71935250D01*
X102223000Y-76472607D01*
X97409214Y-76472607D01*
X97388936Y-76452293D01*
X97132301Y-76345729D01*
X96854420Y-76345486D01*
X96597600Y-76451603D01*
X96400937Y-76647922D01*
X96294373Y-76904557D01*
X96294130Y-77182438D01*
X96400247Y-77439258D01*
X96574985Y-77614302D01*
X96511754Y-77766582D01*
X96511511Y-78044463D01*
X96617628Y-78301283D01*
X96813947Y-78497946D01*
X97070582Y-78604510D01*
X97348463Y-78604753D01*
X97605283Y-78498636D01*
X97626323Y-78477632D01*
X104700792Y-78477632D01*
X104679632Y-78528592D01*
X104679606Y-78558322D01*
X103672428Y-79565500D01*
X99327464Y-79565500D01*
X99327464Y-79137000D01*
X99299278Y-78991726D01*
X99215404Y-78864044D01*
X99088784Y-78778574D01*
X98939000Y-78748536D01*
X97339000Y-78748536D01*
X97193726Y-78776722D01*
X97066044Y-78860596D01*
X96980574Y-78987216D01*
X96950536Y-79137000D01*
X96950536Y-81137000D01*
X96978722Y-81282274D01*
X97062596Y-81409956D01*
X97132466Y-81457119D01*
X97099888Y-81478888D01*
X97099885Y-81478891D01*
X95956888Y-82621888D01*
X95833003Y-82807296D01*
X95825785Y-82843582D01*
X95789499Y-83026000D01*
X95789500Y-83026005D01*
X95789500Y-87978994D01*
X95789499Y-87979000D01*
X95825785Y-88161417D01*
X95833003Y-88197704D01*
X95956888Y-88383112D01*
X97353885Y-89780108D01*
X97353888Y-89780112D01*
X97539296Y-89903997D01*
X97539297Y-89903997D01*
X97758000Y-89947500D01*
X98317536Y-89947500D01*
X98317536Y-90026000D01*
X98345722Y-90171274D01*
X98429596Y-90298956D01*
X98556216Y-90384426D01*
X98706000Y-90414464D01*
X100206000Y-90414464D01*
X100351274Y-90386278D01*
X100478956Y-90302404D01*
X100564426Y-90175784D01*
X100594464Y-90026000D01*
X100594464Y-88726000D01*
X100566278Y-88580726D01*
X100482404Y-88453044D01*
X100355784Y-88367574D01*
X100206000Y-88337536D01*
X99574000Y-88337536D01*
X99574000Y-85263309D01*
X99574000Y-84422750D01*
X99574000Y-83851250D01*
X99574000Y-83010691D01*
X99477327Y-82777302D01*
X99298699Y-82598673D01*
X99065310Y-82502000D01*
X98812691Y-82502000D01*
X98424750Y-82502000D01*
X98266000Y-82660750D01*
X98266000Y-84010000D01*
X99415250Y-84010000D01*
X99574000Y-83851250D01*
X99574000Y-84422750D01*
X99415250Y-84264000D01*
X98266000Y-84264000D01*
X98266000Y-85613250D01*
X98424750Y-85772000D01*
X98812691Y-85772000D01*
X99065310Y-85772000D01*
X99298699Y-85675327D01*
X99477327Y-85496698D01*
X99574000Y-85263309D01*
X99574000Y-88337536D01*
X98706000Y-88337536D01*
X98560726Y-88365722D01*
X98433044Y-88449596D01*
X98347574Y-88576216D01*
X98317536Y-88726000D01*
X98317536Y-88804500D01*
X97994723Y-88804500D01*
X96932500Y-87742276D01*
X96932500Y-85628525D01*
X96979301Y-85675327D01*
X97212690Y-85772000D01*
X97465309Y-85772000D01*
X97853250Y-85772000D01*
X98012000Y-85613250D01*
X98012000Y-84264000D01*
X97992000Y-84264000D01*
X97992000Y-84010000D01*
X98012000Y-84010000D01*
X98012000Y-82660750D01*
X97853250Y-82502000D01*
X97693223Y-82502000D01*
X97740723Y-82454500D01*
X105758994Y-82454500D01*
X105759000Y-82454501D01*
X105759000Y-82454500D01*
X105941417Y-82418214D01*
X105977703Y-82410997D01*
X105977704Y-82410997D01*
X106163112Y-82287112D01*
X108957108Y-79493114D01*
X108957112Y-79493112D01*
X108957112Y-79493111D01*
X109039889Y-79369226D01*
X109061001Y-79337630D01*
X109061001Y-81311505D01*
X109061000Y-81311511D01*
X109097286Y-81493928D01*
X109104504Y-81530215D01*
X109228389Y-81715623D01*
X109251404Y-81738638D01*
X109251379Y-81767341D01*
X109357496Y-82024161D01*
X109553815Y-82220824D01*
X109810450Y-82327388D01*
X110088331Y-82327631D01*
X110345151Y-82221514D01*
X110541814Y-82025195D01*
X110648378Y-81768560D01*
X110648621Y-81490679D01*
X110542504Y-81233859D01*
X110346185Y-81037196D01*
X110204001Y-80978156D01*
X110204001Y-76866506D01*
X110204001Y-76866501D01*
X110204002Y-76866501D01*
X110160499Y-76647798D01*
X110160498Y-76647797D01*
X110119390Y-76586275D01*
X110036613Y-76462390D01*
X110036613Y-76462389D01*
X110036609Y-76462386D01*
X109211122Y-75636898D01*
X109025714Y-75513013D01*
X108989427Y-75505795D01*
X108807010Y-75469509D01*
X108807004Y-75469510D01*
X106521051Y-75469510D01*
X106521001Y-75469500D01*
X106520995Y-75469501D01*
X105868724Y-75469501D01*
X105695500Y-75296276D01*
X105695500Y-74771000D01*
X105695500Y-74626723D01*
X110059722Y-70262501D01*
X110346235Y-70262501D01*
X110346241Y-70262502D01*
X110346241Y-70262501D01*
X110528658Y-70226215D01*
X110564944Y-70218998D01*
X110564945Y-70218998D01*
X110750353Y-70095113D01*
X110839249Y-70006215D01*
X110839253Y-70006213D01*
X110839253Y-70006212D01*
X110922030Y-69882327D01*
X110963138Y-69820805D01*
X110963139Y-69820804D01*
X111006641Y-69602101D01*
X111006642Y-69602101D01*
X111006641Y-69602095D01*
X111006641Y-69317620D01*
X114614694Y-69317620D01*
X114629082Y-69391774D01*
X114712956Y-69519456D01*
X114839576Y-69604926D01*
X114989360Y-69634964D01*
X115990120Y-69634964D01*
X116135394Y-69606778D01*
X116263076Y-69522904D01*
X116348546Y-69396284D01*
X116378584Y-69246500D01*
X116378584Y-91979500D01*
X114865298Y-91979500D01*
X114812795Y-91926905D01*
X114542162Y-91814528D01*
X114249124Y-91814272D01*
X113978295Y-91926177D01*
X113770905Y-92133205D01*
X113658528Y-92403838D01*
X113658272Y-92696876D01*
X113770177Y-92967705D01*
X113977205Y-93175095D01*
X114247838Y-93287472D01*
X114540876Y-93287728D01*
X114811705Y-93175823D01*
X114865121Y-93122500D01*
X118496898Y-93122500D01*
X118342905Y-93276225D01*
X118230528Y-93546858D01*
X118230462Y-93622334D01*
X116378584Y-95474212D01*
X116378584Y-94900500D01*
X116350398Y-94755226D01*
X116266524Y-94627544D01*
X116139904Y-94542074D01*
X115990120Y-94512036D01*
X114989360Y-94512036D01*
X114844086Y-94540222D01*
X114716404Y-94624096D01*
X114630934Y-94750716D01*
X114600896Y-94900500D01*
X114600896Y-95901260D01*
X114629082Y-96046534D01*
X114712956Y-96174216D01*
X114839576Y-96259686D01*
X114989360Y-96289724D01*
X115563072Y-96289724D01*
X115085628Y-96767168D01*
X114961743Y-96952576D01*
X114954525Y-96988862D01*
X114918239Y-97171280D01*
X114918240Y-97171285D01*
X114918240Y-98224074D01*
X114844086Y-98238462D01*
X114716404Y-98322336D01*
X114630934Y-98448956D01*
X114600896Y-98598740D01*
X114600896Y-99599500D01*
X114629082Y-99744774D01*
X114712956Y-99872456D01*
X114839576Y-99957926D01*
X114989360Y-99987964D01*
X115990120Y-99987964D01*
X116135394Y-99959778D01*
X116263076Y-99875904D01*
X116348546Y-99749284D01*
X116378584Y-99599500D01*
X116378584Y-98598740D01*
X116350398Y-98453466D01*
X116266524Y-98325784D01*
X116139904Y-98240314D01*
X116061240Y-98224538D01*
X116061240Y-97408003D01*
X119038559Y-94430683D01*
X119112876Y-94430748D01*
X119383705Y-94318843D01*
X119591095Y-94111815D01*
X119703472Y-93841182D01*
X119703728Y-93548144D01*
X119591823Y-93277315D01*
X119437278Y-93122500D01*
X119524276Y-93122500D01*
X120706885Y-94305108D01*
X120706888Y-94305112D01*
X120892296Y-94428997D01*
X120892297Y-94428997D01*
X121103536Y-94471015D01*
X121103536Y-94651000D01*
X121131722Y-94796274D01*
X121215596Y-94923956D01*
X121342216Y-95009426D01*
X121492000Y-95039464D01*
X122792000Y-95039464D01*
X122937274Y-95011278D01*
X123064956Y-94927404D01*
X123150426Y-94800784D01*
X123180464Y-94651000D01*
X123180464Y-94472500D01*
X123389536Y-94472500D01*
X123389536Y-94651000D01*
X123417722Y-94796274D01*
X123501596Y-94923956D01*
X123628216Y-95009426D01*
X123778000Y-95039464D01*
X125078000Y-95039464D01*
X125223274Y-95011278D01*
X125350956Y-94927404D01*
X125436426Y-94800784D01*
X125466464Y-94651000D01*
X125466464Y-96061328D01*
X125453542Y-96074250D01*
X125298948Y-96043499D01*
X125298942Y-96043500D01*
X125279298Y-96043500D01*
X125226795Y-95990905D01*
X124956162Y-95878528D01*
X124663124Y-95878272D01*
X124392295Y-95990177D01*
X124184905Y-96197205D01*
X124072528Y-96467838D01*
X124072272Y-96760876D01*
X124184177Y-97031705D01*
X124391205Y-97239095D01*
X124471033Y-97272242D01*
X124490868Y-97374470D01*
X124575541Y-97501624D01*
X127605213Y-100531296D01*
X123859169Y-103106702D01*
X123838899Y-103115048D01*
X122177457Y-99103970D01*
X122095822Y-98980541D01*
X121969471Y-98894675D01*
X121819782Y-98864167D01*
X121669904Y-98893735D01*
X120284085Y-99467761D01*
X120160656Y-99549396D01*
X120074790Y-99675747D01*
X120044282Y-99825436D01*
X120073850Y-99975314D01*
X121733469Y-103981990D01*
X121490212Y-104082155D01*
X119830803Y-100075986D01*
X119749168Y-99952557D01*
X119622817Y-99866691D01*
X119473128Y-99836183D01*
X119323250Y-99865751D01*
X118977987Y-100008763D01*
X118941663Y-99972439D01*
X118941728Y-99898124D01*
X118829823Y-99627295D01*
X118622795Y-99419905D01*
X118352162Y-99307528D01*
X118059124Y-99307272D01*
X117788295Y-99419177D01*
X117580905Y-99626205D01*
X117468528Y-99896838D01*
X117468272Y-100189876D01*
X117580177Y-100460705D01*
X117743840Y-100624654D01*
X117728136Y-100647763D01*
X117697628Y-100797452D01*
X117727196Y-100947330D01*
X119370181Y-104913848D01*
X114898464Y-105808191D01*
X114898464Y-101510000D01*
X114870278Y-101364726D01*
X114786404Y-101237044D01*
X114659784Y-101151574D01*
X114510000Y-101121536D01*
X113010000Y-101121536D01*
X112864726Y-101149722D01*
X112737044Y-101233596D01*
X112651574Y-101360216D01*
X112621536Y-101510000D01*
X112621536Y-105886000D01*
X112358464Y-105886000D01*
X112358464Y-101510000D01*
X112330278Y-101364726D01*
X112246404Y-101237044D01*
X112119784Y-101151574D01*
X111970000Y-101121536D01*
X111778478Y-101121536D01*
X111747997Y-100968296D01*
X111624112Y-100782888D01*
X111624108Y-100782885D01*
X111448663Y-100607439D01*
X111448728Y-100533124D01*
X111336823Y-100262295D01*
X111129795Y-100054905D01*
X110859162Y-99942528D01*
X110625640Y-99942323D01*
X110625640Y-96027570D01*
X110625640Y-95774951D01*
X110625640Y-95686630D01*
X110625640Y-95115130D01*
X110625640Y-95026809D01*
X110625640Y-94774190D01*
X110528967Y-94540801D01*
X110350338Y-94362173D01*
X110116949Y-94265500D01*
X109776010Y-94265500D01*
X109617260Y-94424250D01*
X109617260Y-95273880D01*
X110466890Y-95273880D01*
X110625640Y-95115130D01*
X110625640Y-95686630D01*
X110466890Y-95527880D01*
X109617260Y-95527880D01*
X109617260Y-96377510D01*
X109776010Y-96536260D01*
X110116949Y-96536260D01*
X110350338Y-96439587D01*
X110528967Y-96260959D01*
X110625640Y-96027570D01*
X110625640Y-99942323D01*
X110566124Y-99942272D01*
X110379104Y-100019547D01*
X110379104Y-99599500D01*
X110379104Y-98598740D01*
X110350918Y-98453466D01*
X110267044Y-98325784D01*
X110140424Y-98240314D01*
X109990640Y-98210276D01*
X109363260Y-98210276D01*
X109363260Y-96377510D01*
X109363260Y-95527880D01*
X109363260Y-95273880D01*
X109363260Y-94424250D01*
X109204510Y-94265500D01*
X108863571Y-94265500D01*
X108630182Y-94362173D01*
X108451553Y-94540801D01*
X108354880Y-94774190D01*
X108354880Y-95026809D01*
X108354880Y-95115130D01*
X108513630Y-95273880D01*
X109363260Y-95273880D01*
X109363260Y-95527880D01*
X108513630Y-95527880D01*
X108354880Y-95686630D01*
X108354880Y-95774951D01*
X108354880Y-96027570D01*
X108451553Y-96260959D01*
X108630182Y-96439587D01*
X108863571Y-96536260D01*
X109204510Y-96536260D01*
X109363260Y-96377510D01*
X109363260Y-98210276D01*
X108989880Y-98210276D01*
X108844606Y-98238462D01*
X108716924Y-98322336D01*
X108631454Y-98448956D01*
X108601416Y-98598740D01*
X108601416Y-99599500D01*
X108629602Y-99744774D01*
X108713476Y-99872456D01*
X108840096Y-99957926D01*
X108989880Y-99987964D01*
X109990640Y-99987964D01*
X110135914Y-99959778D01*
X110263596Y-99875904D01*
X110349066Y-99749284D01*
X110379104Y-99599500D01*
X110379104Y-100019547D01*
X110295295Y-100054177D01*
X110087905Y-100261205D01*
X109975528Y-100531838D01*
X109975272Y-100824876D01*
X110087177Y-101095705D01*
X110213823Y-101222573D01*
X110197044Y-101233596D01*
X110111574Y-101360216D01*
X110081536Y-101510000D01*
X110081536Y-105808191D01*
X105609819Y-104913847D01*
X107252804Y-100947330D01*
X107282357Y-100802328D01*
X107253730Y-100652268D01*
X107169456Y-100524849D01*
X107042569Y-100439777D01*
X106453690Y-100195854D01*
X106453690Y-93450740D01*
X106453690Y-93198121D01*
X106453690Y-92709750D01*
X106453690Y-92138250D01*
X106453690Y-91649879D01*
X106453690Y-91397260D01*
X106357017Y-91163871D01*
X106178388Y-90985243D01*
X105944999Y-90888570D01*
X105305610Y-90888570D01*
X105146860Y-91047320D01*
X105146860Y-92297000D01*
X106294940Y-92297000D01*
X106453690Y-92138250D01*
X106453690Y-92709750D01*
X106294940Y-92551000D01*
X105146860Y-92551000D01*
X105146860Y-93800680D01*
X105305610Y-93959430D01*
X105944999Y-93959430D01*
X106178388Y-93862757D01*
X106357017Y-93684129D01*
X106453690Y-93450740D01*
X106453690Y-100195854D01*
X105656750Y-99865751D01*
X105511748Y-99836198D01*
X105361687Y-99864825D01*
X105234269Y-99949099D01*
X105149197Y-100075986D01*
X103494976Y-104069629D01*
X103252370Y-103967891D01*
X104906150Y-99975314D01*
X104935703Y-99830312D01*
X104907076Y-99680252D01*
X104822802Y-99552833D01*
X104695915Y-99467761D01*
X104482283Y-99379271D01*
X104489001Y-99345499D01*
X104489002Y-99345499D01*
X104489001Y-99345493D01*
X104489001Y-99212051D01*
X104651705Y-99144823D01*
X104859095Y-98937795D01*
X104971472Y-98667162D01*
X104971728Y-98374124D01*
X104892860Y-98183250D01*
X104892860Y-93800680D01*
X104892860Y-92551000D01*
X104892860Y-92297000D01*
X104892860Y-91047320D01*
X104734110Y-90888570D01*
X104094721Y-90888570D01*
X103861332Y-90985243D01*
X103682703Y-91163871D01*
X103586030Y-91397260D01*
X103586030Y-91649879D01*
X103586030Y-92138250D01*
X103744780Y-92297000D01*
X104892860Y-92297000D01*
X104892860Y-92551000D01*
X103744780Y-92551000D01*
X103586030Y-92709750D01*
X103586030Y-93198121D01*
X103586030Y-93450740D01*
X103682703Y-93684129D01*
X103861332Y-93862757D01*
X104094721Y-93959430D01*
X104734110Y-93959430D01*
X104892860Y-93800680D01*
X104892860Y-98183250D01*
X104859823Y-98103295D01*
X104652795Y-97895905D01*
X104382162Y-97783528D01*
X104089124Y-97783272D01*
X103818295Y-97895177D01*
X103610905Y-98102205D01*
X103498528Y-98372838D01*
X103498455Y-98455736D01*
X103389504Y-98618795D01*
X103382286Y-98655081D01*
X103367434Y-98729745D01*
X103367434Y-93324430D01*
X103367434Y-91523570D01*
X103339248Y-91378296D01*
X103255374Y-91250614D01*
X103128754Y-91165144D01*
X102978970Y-91135106D01*
X102751640Y-91135106D01*
X102751640Y-90414464D01*
X102906000Y-90414464D01*
X103051274Y-90386278D01*
X103178956Y-90302404D01*
X103264426Y-90175784D01*
X103294464Y-90026000D01*
X103294464Y-88726000D01*
X103266278Y-88580726D01*
X103182404Y-88453044D01*
X103055784Y-88367574D01*
X102906000Y-88337536D01*
X101406000Y-88337536D01*
X101260726Y-88365722D01*
X101133044Y-88449596D01*
X101047574Y-88576216D01*
X101017536Y-88726000D01*
X101017536Y-90026000D01*
X101045722Y-90171274D01*
X101129596Y-90298956D01*
X101256216Y-90384426D01*
X101406000Y-90414464D01*
X101608640Y-90414464D01*
X101608640Y-91135106D01*
X101381310Y-91135106D01*
X101236036Y-91163292D01*
X101108354Y-91247166D01*
X101022884Y-91373786D01*
X100992846Y-91523570D01*
X100992846Y-93324430D01*
X101021032Y-93469704D01*
X101104906Y-93597386D01*
X101231526Y-93682856D01*
X101381310Y-93712894D01*
X102978970Y-93712894D01*
X103124244Y-93684708D01*
X103251926Y-93600834D01*
X103337396Y-93474214D01*
X103367434Y-93324430D01*
X103367434Y-98729745D01*
X103346000Y-98837499D01*
X103346001Y-98837504D01*
X103346001Y-98908607D01*
X103310096Y-98893735D01*
X103165094Y-98864182D01*
X103015033Y-98892809D01*
X102887615Y-98977083D01*
X102802543Y-99103970D01*
X102372289Y-100142694D01*
X102372288Y-100142696D01*
X102369641Y-100146658D01*
X102368711Y-100151332D01*
X102368711Y-100151333D01*
X101179550Y-103022222D01*
X97380427Y-100525655D01*
X100404459Y-97501624D01*
X100487252Y-97378969D01*
X100518230Y-97229376D01*
X100489132Y-97079406D01*
X100404459Y-96952252D01*
X99343799Y-95891592D01*
X99221144Y-95808799D01*
X99071551Y-95777821D01*
X98921581Y-95806919D01*
X98794427Y-95891592D01*
X95718312Y-98967706D01*
X95532293Y-98781687D01*
X98608408Y-95705573D01*
X98691201Y-95582918D01*
X98722179Y-95433325D01*
X98693081Y-95283355D01*
X98608408Y-95156201D01*
X98425749Y-94973542D01*
X98456500Y-94818948D01*
X98456501Y-94818948D01*
X98456500Y-94818942D01*
X98456500Y-94164296D01*
X98509095Y-94111793D01*
X98621472Y-93841160D01*
X98621728Y-93548122D01*
X98509823Y-93277293D01*
X98302795Y-93069903D01*
X98032162Y-92957526D01*
X97739124Y-92957270D01*
X97468295Y-93069175D01*
X97260905Y-93276203D01*
X97148528Y-93546836D01*
X97148272Y-93839874D01*
X97211993Y-93994091D01*
X97125530Y-94010868D01*
X96998376Y-94095541D01*
X93970724Y-97123192D01*
X91415680Y-93346171D01*
X95396030Y-91697457D01*
X95519459Y-91615822D01*
X95605325Y-91489471D01*
X95635833Y-91339782D01*
X95606265Y-91189904D01*
X95032239Y-89804085D01*
X94950604Y-89680656D01*
X94824253Y-89594790D01*
X94674564Y-89564282D01*
X94524686Y-89593850D01*
X90486731Y-91266424D01*
X90384994Y-91023819D01*
X94424014Y-89350803D01*
X94547443Y-89269168D01*
X94633309Y-89142817D01*
X94663817Y-88993128D01*
X94634249Y-88843250D01*
X94528434Y-88587790D01*
X94542609Y-88573615D01*
X94542613Y-88573613D01*
X94542613Y-88573612D01*
X94625390Y-88449727D01*
X94666498Y-88388205D01*
X94666499Y-88388204D01*
X94683875Y-88300846D01*
X94872705Y-88222823D01*
X95080095Y-88015795D01*
X95192472Y-87745162D01*
X95192728Y-87452124D01*
X95080823Y-87181295D01*
X94873795Y-86973905D01*
X94603162Y-86861528D01*
X94310124Y-86861272D01*
X94039295Y-86973177D01*
X93831905Y-87180205D01*
X93807484Y-87239015D01*
X93702548Y-87217628D01*
X93552670Y-87247196D01*
X89564158Y-88899291D01*
X88689851Y-84418464D01*
X92990000Y-84418464D01*
X93135274Y-84390278D01*
X93262956Y-84306404D01*
X93348426Y-84179784D01*
X93378464Y-84030000D01*
X93378464Y-82555336D01*
X93510000Y-82581501D01*
X93510000Y-82581500D01*
X93510005Y-82581500D01*
X93531534Y-82581500D01*
X93551813Y-82601814D01*
X93808448Y-82708378D01*
X94086329Y-82708621D01*
X94343149Y-82602504D01*
X94539812Y-82406185D01*
X94646376Y-82149550D01*
X94646498Y-82010009D01*
X94646500Y-82010000D01*
X94646498Y-82009990D01*
X94646619Y-81871669D01*
X94540502Y-81614849D01*
X94344183Y-81418186D01*
X94087548Y-81311622D01*
X93809667Y-81311379D01*
X93675174Y-81366950D01*
X93378464Y-81070240D01*
X93378464Y-79990000D01*
X93350278Y-79844726D01*
X93266404Y-79717044D01*
X93139784Y-79631574D01*
X92990000Y-79601536D01*
X88691808Y-79601536D01*
X89586151Y-75129818D01*
X93552670Y-76772804D01*
X93697672Y-76802357D01*
X93847732Y-76773730D01*
X93975151Y-76689456D01*
X94060223Y-76562569D01*
X94634249Y-75176750D01*
X94663802Y-75031748D01*
X94635175Y-74881687D01*
X94550901Y-74754269D01*
X94424014Y-74669197D01*
X90430370Y-73014975D01*
X90532107Y-72772370D01*
X94524686Y-74426150D01*
X94669688Y-74455703D01*
X94819748Y-74427076D01*
X94947167Y-74342802D01*
X95018373Y-74236596D01*
X95067885Y-74286108D01*
X95067888Y-74286112D01*
X95253296Y-74409997D01*
X95360577Y-74431336D01*
X95435205Y-74506095D01*
X95705838Y-74618472D01*
X95998876Y-74618728D01*
X96269705Y-74506823D01*
X96477095Y-74299795D01*
X96589472Y-74029162D01*
X96589728Y-73736124D01*
X96477823Y-73465295D01*
X96270795Y-73257905D01*
X96000162Y-73145528D01*
X95707124Y-73145272D01*
X95591337Y-73193114D01*
X95495567Y-73097343D01*
X95606265Y-72830096D01*
X95635818Y-72685094D01*
X95607191Y-72535033D01*
X95522917Y-72407615D01*
X95396030Y-72322543D01*
X91477777Y-70699550D01*
X93974343Y-66900426D01*
X96998376Y-69924459D01*
X97121031Y-70007252D01*
X97270624Y-70038230D01*
X97420594Y-70009132D01*
X97547748Y-69924459D01*
X98608408Y-68863799D01*
X98691201Y-68741144D01*
X98722179Y-68591551D01*
X98693081Y-68441581D01*
X98608408Y-68314427D01*
X95532292Y-65238311D01*
X95718311Y-65052292D01*
X98794427Y-68128408D01*
X98917082Y-68211201D01*
X99066675Y-68242179D01*
X99124381Y-68230982D01*
X99165173Y-68329705D01*
X99372201Y-68537095D01*
X99642834Y-68649472D01*
X99935872Y-68649728D01*
X100182070Y-68548000D01*
X101473000Y-68548000D01*
X101473000Y-67398750D01*
X101314250Y-67240000D01*
X100473691Y-67240000D01*
X100319693Y-67303788D01*
X100317993Y-67295241D01*
X100317993Y-67295240D01*
X100261506Y-67210700D01*
X100404459Y-67067748D01*
X100487252Y-66945093D01*
X100518230Y-66795500D01*
X100489132Y-66645530D01*
X100404459Y-66518376D01*
X97376806Y-63490723D01*
X101153828Y-60935679D01*
X102802543Y-64916030D01*
X102884178Y-65039459D01*
X103010529Y-65125325D01*
X103160218Y-65155833D01*
X103310096Y-65126265D01*
X103752442Y-64943038D01*
X103752272Y-65137876D01*
X103864177Y-65408705D01*
X104071205Y-65616095D01*
X104341838Y-65728472D01*
X104634876Y-65728728D01*
X104905705Y-65616823D01*
X105113095Y-65409795D01*
X105225472Y-65139162D01*
X105225537Y-65063686D01*
X105648400Y-64640822D01*
X105648404Y-64640820D01*
X105648404Y-64640819D01*
X105772289Y-64455412D01*
X105772289Y-64455411D01*
X105779506Y-64419125D01*
X105815792Y-64236708D01*
X105815793Y-64236708D01*
X105815792Y-64236702D01*
X105815792Y-64088371D01*
X107042569Y-63580223D01*
X107165998Y-63498588D01*
X107251864Y-63372237D01*
X107282372Y-63222548D01*
X107252804Y-63072670D01*
X105609818Y-59106151D01*
X110081536Y-58211808D01*
X110081536Y-62510000D01*
X110109722Y-62655274D01*
X110193596Y-62782956D01*
X110320216Y-62868426D01*
X110470000Y-62898464D01*
X111970000Y-62898464D01*
X112115274Y-62870278D01*
X112242956Y-62786404D01*
X112328426Y-62659784D01*
X112358464Y-62510000D01*
X112358464Y-58134000D01*
X112621536Y-58134000D01*
X112621536Y-62510000D01*
X112649722Y-62655274D01*
X112733596Y-62782956D01*
X112860216Y-62868426D01*
X113010000Y-62898464D01*
X113021633Y-62898464D01*
X112997039Y-62935271D01*
X112881905Y-63050205D01*
X112769528Y-63320838D01*
X112769272Y-63613876D01*
X112881177Y-63884705D01*
X113088205Y-64092095D01*
X113358838Y-64204472D01*
X113651876Y-64204728D01*
X113922705Y-64092823D01*
X114130095Y-63885795D01*
X114242472Y-63615162D01*
X114242728Y-63322124D01*
X114223408Y-63275367D01*
X114287997Y-63178704D01*
X114287997Y-63178703D01*
X114331500Y-62960000D01*
X114331500Y-62898464D01*
X114510000Y-62898464D01*
X114655274Y-62870278D01*
X114782956Y-62786404D01*
X114868426Y-62659784D01*
X114898464Y-62510000D01*
X114898464Y-58211808D01*
X119370181Y-59106151D01*
X117727196Y-63072670D01*
X117697643Y-63217672D01*
X117726270Y-63367732D01*
X117810544Y-63495151D01*
X117937431Y-63580223D01*
X119323250Y-64154249D01*
X119370130Y-64163803D01*
X119185295Y-64240177D01*
X118977905Y-64447205D01*
X118865528Y-64717838D01*
X118865272Y-65010876D01*
X118977177Y-65281705D01*
X119184205Y-65489095D01*
X119454838Y-65601472D01*
X119747876Y-65601728D01*
X120018705Y-65489823D01*
X120077373Y-65431257D01*
X120077374Y-65431256D01*
X120233429Y-65400214D01*
X120269715Y-65392997D01*
X120269716Y-65392997D01*
X120455124Y-65269112D01*
X120541735Y-65182500D01*
X120744994Y-65182500D01*
X120745000Y-65182501D01*
X120745000Y-65182500D01*
X120927417Y-65146214D01*
X120963703Y-65138997D01*
X120963704Y-65138997D01*
X121149112Y-65015112D01*
X121223051Y-64941172D01*
X121669904Y-65126265D01*
X121814906Y-65155818D01*
X121964967Y-65127191D01*
X122092385Y-65042917D01*
X122177457Y-64916030D01*
X123800449Y-60997777D01*
X127599573Y-63494343D01*
X124575541Y-66518376D01*
X124492748Y-66641031D01*
X124461770Y-66790624D01*
X124490868Y-66940594D01*
X124575541Y-67067748D01*
X124811083Y-67303290D01*
X124790124Y-67303272D01*
X124519295Y-67415177D01*
X124311905Y-67622205D01*
X124199528Y-67892838D01*
X124199306Y-68146083D01*
X123815464Y-67762240D01*
X123815464Y-66321000D01*
X123787278Y-66175726D01*
X123703404Y-66048044D01*
X123576784Y-65962574D01*
X123427000Y-65932536D01*
X122127000Y-65932536D01*
X121981726Y-65960722D01*
X121854044Y-66044596D01*
X121768574Y-66171216D01*
X121738536Y-66321000D01*
X121738536Y-66499500D01*
X121482464Y-66499500D01*
X121482464Y-66399000D01*
X121454278Y-66253726D01*
X121370404Y-66126044D01*
X121243784Y-66040574D01*
X121094000Y-66010536D01*
X119594000Y-66010536D01*
X119448726Y-66038722D01*
X119321044Y-66122596D01*
X119235574Y-66249216D01*
X119229000Y-66281997D01*
X119229000Y-66272690D01*
X119132327Y-66039301D01*
X118953698Y-65860673D01*
X118720309Y-65764000D01*
X118129750Y-65764000D01*
X117971000Y-65922750D01*
X117971000Y-66897000D01*
X117991000Y-66897000D01*
X117991000Y-67151000D01*
X117971000Y-67151000D01*
X117971000Y-68125250D01*
X118129750Y-68284000D01*
X118720309Y-68284000D01*
X118953698Y-68187327D01*
X119132327Y-68008699D01*
X119229000Y-67775310D01*
X119229000Y-67769936D01*
X119233722Y-67794274D01*
X119317596Y-67921956D01*
X119444216Y-68007426D01*
X119594000Y-68037464D01*
X121094000Y-68037464D01*
X121239274Y-68009278D01*
X121366956Y-67925404D01*
X121452426Y-67798784D01*
X121482464Y-67649000D01*
X121482464Y-67642500D01*
X121738536Y-67642500D01*
X121738536Y-67821000D01*
X121766722Y-67966274D01*
X121850596Y-68093956D01*
X121977216Y-68179426D01*
X122127000Y-68209464D01*
X122646240Y-68209464D01*
X123069312Y-68632536D01*
X122127000Y-68632536D01*
X121981726Y-68660722D01*
X121854044Y-68744596D01*
X121768574Y-68871216D01*
X121738536Y-69021000D01*
X121738536Y-69199500D01*
X121482464Y-69199500D01*
X121482464Y-69066000D01*
X121454278Y-68920726D01*
X121370404Y-68793044D01*
X121243784Y-68707574D01*
X121094000Y-68677536D01*
X119594000Y-68677536D01*
X119448726Y-68705722D01*
X119321044Y-68789596D01*
X119235574Y-68916216D01*
X119229000Y-68948997D01*
X119229000Y-68939690D01*
X119132327Y-68706301D01*
X118953698Y-68527673D01*
X118720309Y-68431000D01*
X118129750Y-68431000D01*
X117971000Y-68589750D01*
X117971000Y-69564000D01*
X117991000Y-69564000D01*
X117991000Y-69818000D01*
X117971000Y-69818000D01*
X117971000Y-70792250D01*
X118129750Y-70951000D01*
X118395500Y-70951000D01*
X118395500Y-71506701D01*
X118342905Y-71559205D01*
X118230528Y-71829838D01*
X118230272Y-72122876D01*
X118342177Y-72393705D01*
X118549205Y-72601095D01*
X118819838Y-72713472D01*
X118890557Y-72713533D01*
X118804295Y-72749177D01*
X118596905Y-72956205D01*
X118484528Y-73226838D01*
X118484272Y-73519876D01*
X118596177Y-73790705D01*
X118803205Y-73998095D01*
X119073838Y-74110472D01*
X119366876Y-74110728D01*
X119637705Y-73998823D01*
X119845095Y-73791795D01*
X119957472Y-73521162D01*
X119957473Y-73519750D01*
X120334759Y-73142464D01*
X121415000Y-73142464D01*
X121560274Y-73114278D01*
X121687956Y-73030404D01*
X121773426Y-72903784D01*
X121803464Y-72754000D01*
X121803464Y-71454000D01*
X121775278Y-71308726D01*
X121691404Y-71181044D01*
X121564784Y-71095574D01*
X121415000Y-71065536D01*
X119915000Y-71065536D01*
X119769726Y-71093722D01*
X119642044Y-71177596D01*
X119556574Y-71304216D01*
X119538500Y-71394341D01*
X119538500Y-71179723D01*
X120013759Y-70704464D01*
X121094000Y-70704464D01*
X121239274Y-70676278D01*
X121366956Y-70592404D01*
X121452426Y-70465784D01*
X121477149Y-70342500D01*
X121738536Y-70342500D01*
X121738536Y-70521000D01*
X121766722Y-70666274D01*
X121850596Y-70793956D01*
X121977216Y-70879426D01*
X122127000Y-70909464D01*
X123427000Y-70909464D01*
X123572274Y-70881278D01*
X123699956Y-70797404D01*
X123785426Y-70670784D01*
X123815464Y-70521000D01*
X123815464Y-69378687D01*
X124491500Y-70054723D01*
X124491500Y-71392336D01*
X124475278Y-71308726D01*
X124391404Y-71181044D01*
X124264784Y-71095574D01*
X124115000Y-71065536D01*
X122615000Y-71065536D01*
X122469726Y-71093722D01*
X122342044Y-71177596D01*
X122256574Y-71304216D01*
X122226536Y-71454000D01*
X122226536Y-72754000D01*
X122254722Y-72899274D01*
X122338596Y-73026956D01*
X122465216Y-73112426D01*
X122615000Y-73142464D01*
X122793500Y-73142464D01*
X122793500Y-73199994D01*
X122793499Y-73200000D01*
X122829785Y-73382417D01*
X122837003Y-73418704D01*
X122960888Y-73604112D01*
X123515664Y-74158887D01*
X123428751Y-74368199D01*
X123428271Y-74917392D01*
X123637995Y-75424963D01*
X124025994Y-75813640D01*
X124533199Y-76024249D01*
X125082392Y-76024729D01*
X125589963Y-75815005D01*
X125978640Y-75427006D01*
X126189249Y-74919801D01*
X126189729Y-74370608D01*
X125980005Y-73863037D01*
X125592006Y-73474360D01*
X125084801Y-73263751D01*
X124535608Y-73263271D01*
X124323949Y-73350726D01*
X124115576Y-73142352D01*
X124260274Y-73114278D01*
X124387956Y-73030404D01*
X124473426Y-72903784D01*
X124503464Y-72754000D01*
X124503464Y-72164150D01*
X124527785Y-72286417D01*
X124535003Y-72322704D01*
X124658888Y-72508112D01*
X126309664Y-74158887D01*
X126222751Y-74368199D01*
X126222271Y-74917392D01*
X126431995Y-75424963D01*
X126819994Y-75813640D01*
X127327199Y-76024249D01*
X127876392Y-76024729D01*
X128383963Y-75815005D01*
X128772640Y-75427006D01*
X128983249Y-74919801D01*
X128983729Y-74370608D01*
X128774005Y-73863037D01*
X128386006Y-73474360D01*
X127878801Y-73263751D01*
X127329608Y-73263271D01*
X127117949Y-73350726D01*
X125634500Y-71867276D01*
X125634500Y-69818005D01*
X125634500Y-69818000D01*
X125634501Y-69818000D01*
X125598214Y-69635582D01*
X125590997Y-69599297D01*
X125590997Y-69599296D01*
X125467112Y-69413888D01*
X125467108Y-69413885D01*
X124829731Y-68776507D01*
X124864314Y-68776537D01*
X125420885Y-69333108D01*
X125420888Y-69333112D01*
X125420889Y-69333112D01*
X125606296Y-69456997D01*
X125606297Y-69456997D01*
X125642582Y-69464214D01*
X125825000Y-69500501D01*
X125825000Y-69500500D01*
X125825005Y-69500500D01*
X126967994Y-69500500D01*
X126968000Y-69500501D01*
X126968000Y-69500500D01*
X127001608Y-69493815D01*
X127432252Y-69924459D01*
X127554907Y-70007252D01*
X127704500Y-70038230D01*
X127854470Y-70009132D01*
X127981624Y-69924459D01*
X131009275Y-66896807D01*
X133564319Y-70673828D01*
X129583970Y-72322543D01*
X129460541Y-72404178D01*
X129414358Y-72472135D01*
X128593663Y-71651439D01*
X128593728Y-71577124D01*
X128481823Y-71306295D01*
X128274795Y-71098905D01*
X128004162Y-70986528D01*
X127711124Y-70986272D01*
X127440295Y-71098177D01*
X127232905Y-71305205D01*
X127120528Y-71575838D01*
X127120272Y-71868876D01*
X127232177Y-72139705D01*
X127439205Y-72347095D01*
X127709838Y-72459472D01*
X127785314Y-72459537D01*
X128936500Y-73610723D01*
X128936500Y-74135994D01*
X128936499Y-74136000D01*
X128972785Y-74318417D01*
X128980003Y-74354704D01*
X129103888Y-74540112D01*
X129732177Y-75168400D01*
X129732180Y-75168404D01*
X129917588Y-75292289D01*
X129917589Y-75292289D01*
X129953874Y-75299506D01*
X130136292Y-75335793D01*
X130136292Y-75335792D01*
X130136297Y-75335792D01*
X130411628Y-75335792D01*
X130919777Y-76562569D01*
X131001412Y-76685998D01*
X131127763Y-76771864D01*
X131277452Y-76802372D01*
X131427330Y-76772804D01*
X135415840Y-75120709D01*
X136290148Y-79601536D01*
M02*
