M48
;DRILL file {KiCad (2015-06-11 BZR 5731)-product} date Sun 19 Jul 2015 11:21:32 PM CEST
;FORMAT={-:-/ absolute / inch / decimal}
FMAT,2
INCH,TZ
T1C0.016
T2C0.032
T3C0.040
%
G90
G05
M72
T1
X3.5137Y-3.2787
X3.5587Y-2.9237
X3.5587Y-3.2787
X3.5987Y-3.6237
X3.6037Y-2.9387
X3.6137Y-3.2787
X3.6487Y-2.9637
X3.6487Y-3.6137
X3.6887Y-3.5887
X3.6987Y-3.2287
X3.7187Y-3.4487
X3.7537Y-2.6137
X3.7737Y-2.9087
X3.7837Y-2.6487
X3.8186Y-3.0332
X3.8187Y-2.6837
X3.8187Y-3.9137
X3.8272Y-3.0672
X3.8537Y-3.6887
X3.8537Y-3.8837
X3.8737Y-3.8487
X3.9287Y-2.6737
X4.0287Y-2.3987
X4.0487Y-2.4487
X4.0687Y-2.4987
X4.0837Y-2.9887
X4.0987Y-2.9237
X4.1037Y-3.8787
X4.1137Y-2.5587
X4.1237Y-4.0887
X4.1437Y-4.0487
X4.1487Y-3.0972
X4.1587Y-3.3137
X4.1637Y-4.0037
X4.1937Y-2.9537
X4.1987Y-2.7587
X4.2281Y-3.1
X4.2363Y-2.7637
X4.2437Y-3.0687
X4.2737Y-3.0987
X4.3287Y-3.2137
X4.3587Y-3.9637
X4.3787Y-2.3137
X4.3787Y-2.4137
X4.3837Y-2.3637
X4.4687Y-2.4987
X4.4787Y-4.0537
X4.4787Y-4.1137
X4.4787Y-4.1537
X4.5037Y-3.6437
X4.6537Y-3.9387
X4.6837Y-2.8337
X4.6837Y-3.6887
X4.6937Y-2.4487
X4.6937Y-2.8887
X4.7037Y-3.5606
X4.7087Y-2.5537
X4.7187Y-2.4037
X4.7337Y-2.3637
X4.7887Y-3.9637
X4.8087Y-4.0187
X4.8287Y-4.0637
X4.8637Y-3.0187
X4.9137Y-3.8037
X4.9187Y-2.6787
X4.9745Y-2.6225
X5.0087Y-2.5837
X5.0337Y-2.8237
X5.0437Y-2.5437
X5.0437Y-3.7737
X5.0537Y-3.6287
X5.0787Y-3.8087
X5.0887Y-3.3337
X5.1187Y-3.8437
X5.1437Y-3.2299
X5.1587Y-2.8737
X5.2087Y-2.8587
X5.2087Y-3.4937
X5.2437Y-3.1787
X5.2537Y-3.5137
X5.2587Y-2.8333
X5.2887Y-3.1787
X5.2887Y-3.1787
X5.3037Y-3.5337
X5.3337Y-3.1787
T2
X4.9137Y-2.9387
X5.0237Y-2.9387
T3
X4.8787Y-3.4837
X4.9187Y-3.0837
X4.9187Y-3.1837
X4.9187Y-3.2837
X4.9787Y-3.4837
X5.0187Y-3.0837
X5.0187Y-3.1837
X5.0187Y-3.2837
T0
M30
