G04 #@! TF.FileFunction,Soldermask,Top*
%FSLAX46Y46*%
G04 Gerber Fmt 4.6, Leading zero omitted, Abs format (unit mm)*
G04 Created by KiCad (PCBNEW (2015-06-11 BZR 5731)-product) date Sun 19 Jul 2015 11:24:49 PM CEST*
%MOMM*%
G01*
G04 APERTURE LIST*
%ADD10C,0.100000*%
%ADD11R,2.000000X1.600000*%
%ADD12R,1.500000X1.250000*%
%ADD13R,1.727200X1.727200*%
%ADD14O,1.727200X1.727200*%
%ADD15C,1.998980*%
%ADD16R,1.500000X1.300000*%
%ADD17R,1.300000X1.500000*%
%ADD18R,1.000760X1.000760*%
%ADD19R,1.597660X1.800860*%
%ADD20R,1.600000X2.000000*%
%ADD21R,1.500000X4.500000*%
%ADD22R,4.500000X1.500000*%
G04 APERTURE END LIST*
D10*
D11*
X105600000Y-68675000D03*
X101600000Y-68675000D03*
D12*
X104850000Y-70834000D03*
X102350000Y-70834000D03*
X120344000Y-69691000D03*
X117844000Y-69691000D03*
X120344000Y-67024000D03*
X117844000Y-67024000D03*
D13*
X123920000Y-88487000D03*
D14*
X126460000Y-88487000D03*
D13*
X124936000Y-78327000D03*
D14*
X127476000Y-78327000D03*
X124936000Y-80867000D03*
X127476000Y-80867000D03*
X124936000Y-83407000D03*
X127476000Y-83407000D03*
D15*
X124809000Y-74644000D03*
X127603000Y-74644000D03*
D16*
X102156000Y-89376000D03*
X99456000Y-89376000D03*
D17*
X124428000Y-93901000D03*
X124428000Y-91201000D03*
X122142000Y-91201000D03*
X122142000Y-93901000D03*
D16*
X123365000Y-72104000D03*
X120665000Y-72104000D03*
D17*
X122777000Y-67071000D03*
X122777000Y-69771000D03*
D18*
X109490260Y-95400880D03*
X115489740Y-99099120D03*
X109490260Y-99099120D03*
X115489740Y-95400880D03*
X109490260Y-65047880D03*
X115489740Y-68746120D03*
X109490260Y-68746120D03*
X115489740Y-65047880D03*
D19*
X105019860Y-92424000D03*
X102180140Y-92424000D03*
D20*
X98139000Y-84137000D03*
X98139000Y-80137000D03*
D16*
X129588000Y-85947000D03*
X126888000Y-85947000D03*
D10*
G36*
X131278671Y-76413910D02*
X130704645Y-75028091D01*
X134862103Y-73306016D01*
X135436129Y-74691835D01*
X131278671Y-76413910D01*
X131278671Y-76413910D01*
G37*
G36*
X130306655Y-74067256D02*
X129732629Y-72681437D01*
X133890087Y-70959362D01*
X134464113Y-72345181D01*
X130306655Y-74067256D01*
X130306655Y-74067256D01*
G37*
G36*
X127706938Y-69649773D02*
X126646278Y-68589113D01*
X129828258Y-65407133D01*
X130888918Y-66467793D01*
X127706938Y-69649773D01*
X127706938Y-69649773D01*
G37*
G36*
X125910887Y-67853722D02*
X124850227Y-66793062D01*
X128032207Y-63611082D01*
X129092867Y-64671742D01*
X125910887Y-67853722D01*
X125910887Y-67853722D01*
G37*
G36*
X121818563Y-64767371D02*
X120432744Y-64193345D01*
X122154819Y-60035887D01*
X123540638Y-60609913D01*
X121818563Y-64767371D01*
X121818563Y-64767371D01*
G37*
G36*
X119471909Y-63795355D02*
X118086090Y-63221329D01*
X119808165Y-59063871D01*
X121193984Y-59637897D01*
X119471909Y-63795355D01*
X119471909Y-63795355D01*
G37*
D21*
X113760000Y-60260000D03*
X111220000Y-60260000D03*
D10*
G36*
X106893910Y-63221329D02*
X105508091Y-63795355D01*
X103786016Y-59637897D01*
X105171835Y-59063871D01*
X106893910Y-63221329D01*
X106893910Y-63221329D01*
G37*
G36*
X104547256Y-64193345D02*
X103161437Y-64767371D01*
X101439362Y-60609913D01*
X102825181Y-60035887D01*
X104547256Y-64193345D01*
X104547256Y-64193345D01*
G37*
G36*
X100129773Y-66793062D02*
X99069113Y-67853722D01*
X95887133Y-64671742D01*
X96947793Y-63611082D01*
X100129773Y-66793062D01*
X100129773Y-66793062D01*
G37*
G36*
X98333722Y-68589113D02*
X97273062Y-69649773D01*
X94091082Y-66467793D01*
X95151742Y-65407133D01*
X98333722Y-68589113D01*
X98333722Y-68589113D01*
G37*
G36*
X95247371Y-72681437D02*
X94673345Y-74067256D01*
X90515887Y-72345181D01*
X91089913Y-70959362D01*
X95247371Y-72681437D01*
X95247371Y-72681437D01*
G37*
G36*
X94275355Y-75028091D02*
X93701329Y-76413910D01*
X89543871Y-74691835D01*
X90117897Y-73306016D01*
X94275355Y-75028091D01*
X94275355Y-75028091D01*
G37*
D22*
X90740000Y-80740000D03*
X90740000Y-83280000D03*
D10*
G36*
X93701329Y-87606090D02*
X94275355Y-88991909D01*
X90117897Y-90713984D01*
X89543871Y-89328165D01*
X93701329Y-87606090D01*
X93701329Y-87606090D01*
G37*
G36*
X94673345Y-89952744D02*
X95247371Y-91338563D01*
X91089913Y-93060638D01*
X90515887Y-91674819D01*
X94673345Y-89952744D01*
X94673345Y-89952744D01*
G37*
G36*
X97273062Y-94370227D02*
X98333722Y-95430887D01*
X95151742Y-98612867D01*
X94091082Y-97552207D01*
X97273062Y-94370227D01*
X97273062Y-94370227D01*
G37*
G36*
X99069113Y-96166278D02*
X100129773Y-97226938D01*
X96947793Y-100408918D01*
X95887133Y-99348258D01*
X99069113Y-96166278D01*
X99069113Y-96166278D01*
G37*
G36*
X103161437Y-99252629D02*
X104547256Y-99826655D01*
X102825181Y-103984113D01*
X101439362Y-103410087D01*
X103161437Y-99252629D01*
X103161437Y-99252629D01*
G37*
G36*
X105508091Y-100224645D02*
X106893910Y-100798671D01*
X105171835Y-104956129D01*
X103786016Y-104382103D01*
X105508091Y-100224645D01*
X105508091Y-100224645D01*
G37*
D21*
X111220000Y-103760000D03*
X113760000Y-103760000D03*
D10*
G36*
X118086090Y-100798671D02*
X119471909Y-100224645D01*
X121193984Y-104382103D01*
X119808165Y-104956129D01*
X118086090Y-100798671D01*
X118086090Y-100798671D01*
G37*
G36*
X120432744Y-99826655D02*
X121818563Y-99252629D01*
X123540638Y-103410087D01*
X122154819Y-103984113D01*
X120432744Y-99826655D01*
X120432744Y-99826655D01*
G37*
G36*
X124850227Y-97226938D02*
X125910887Y-96166278D01*
X129092867Y-99348258D01*
X128032207Y-100408918D01*
X124850227Y-97226938D01*
X124850227Y-97226938D01*
G37*
G36*
X126646278Y-95430887D02*
X127706938Y-94370227D01*
X130888918Y-97552207D01*
X129828258Y-98612867D01*
X126646278Y-95430887D01*
X126646278Y-95430887D01*
G37*
G36*
X129732629Y-91338563D02*
X130306655Y-89952744D01*
X134464113Y-91674819D01*
X133890087Y-93060638D01*
X129732629Y-91338563D01*
X129732629Y-91338563D01*
G37*
G36*
X130704645Y-88991909D02*
X131278671Y-87606090D01*
X135436129Y-89328165D01*
X134862103Y-90713984D01*
X130704645Y-88991909D01*
X130704645Y-88991909D01*
G37*
D22*
X134240000Y-83280000D03*
X134240000Y-80740000D03*
M02*
